<?xml version="1.0" encoding="UTF-8" standalone="no"?>
<!DOCTYPE svg PUBLIC "-//W3C//DTD SVG 1.1//EN" "http://www.w3.org/Graphics/SVG/1.1/DTD/svg11.dtd">
<svg width="100%" height="100%" viewBox="0 0 1200 1200" version="1.1" xmlns="http://www.w3.org/2000/svg" xmlns:xlink="http://www.w3.org/1999/xlink" xml:space="preserve" xmlns:serif="http://www.serif.com/" style="fill-rule:evenodd;clip-rule:evenodd;stroke-linecap:round;stroke-linejoin:round;stroke-miterlimit:1.5;">
    <rect id="Artboard1" x="0" y="0" width="1200" height="1200" style="fill:none;"/>
    <g id="Artboard11" serif:id="Artboard1">
        <g transform="matrix(3.75535,0.690325,-0.690325,3.75535,-2375.34,-4200.39)">
            <g transform="matrix(0.560103,0.139507,-0.139507,0.560103,735.02,676.226)">
                <path d="M374.747,500.039L397.285,454.693L653.196,341.941L700.432,394.109L757.202,531.202L847.903,697.22L828.832,736.396L675.056,793.136L572.228,845.399L527.331,832.759L487.892,739.562L423.347,590.266L374.747,500.039Z" style="stroke:black;stroke-width:0.45px;"/>
            </g>
            <g transform="matrix(0.981646,-0.190712,0.190712,0.981646,-201.68,166.299)">
                <path d="M1075.3,1028.04L908.676,1028.04L908.676,1241.6L912.848,1247.13L1075.3,1241.6L1075.3,1028.04Z" style="fill:rgb(156,39,7);"/>
            </g>
            <g transform="matrix(0.981646,-0.190712,0.190712,0.981646,-196.632,168.614)">
                <path d="M1072.78,1027.55L906.827,1028.04L908.676,1030.33L908.676,1241.6L1075.3,1241.6L1072.78,1027.55Z" style="fill:white;"/>
            </g>
            <g transform="matrix(0.981646,-0.190712,0.190712,0.981646,-196.632,170.93)">
                <rect x="908.676" y="1028.04" width="166.624" height="213.565" style="fill:rgb(187,41,1);"/>
            </g>
            <g transform="matrix(0.257583,-0.04735,0.04735,0.257583,810.734,969.476)">
                <path d="M846.282,343.744L853.224,326.767C854.222,324.279 854.72,322.899 854.718,322.626C854.709,321.386 853.328,320.752 850.575,320.723L850.563,319.011L861.275,318.932L861.288,320.643C859.627,320.73 858.415,321.179 857.653,321.991C856.89,322.802 855.948,324.589 854.828,327.35L841.493,360.221C840.227,363.355 839.102,365.49 838.118,366.626C837.134,367.762 836.047,368.334 834.857,368.343C833.245,368.355 832.434,367.629 832.423,366.166C832.411,364.48 833.69,363.044 836.26,361.86C837.768,361.179 838.774,360.601 839.279,360.126C839.784,359.651 840.28,358.792 840.766,357.548L843.614,350.273L831.976,325.808C830.943,323.658 830.09,322.3 829.416,321.735C828.742,321.169 827.6,320.893 825.988,320.904L825.975,319.193L839.961,319.09L839.974,320.801C837.519,320.894 836.296,321.411 836.303,322.353C836.305,322.725 836.798,323.937 837.78,325.988L846.282,343.744ZM368.642,334.108L370.241,334.096L370.372,351.765L368.772,351.776C368.311,349.771 367.492,348.004 366.315,346.475C361.913,351.517 356.265,354.064 349.371,354.115C342.081,354.169 336.106,351.906 331.447,347.328C326.788,342.75 324.43,336.667 324.374,329.078C324.337,324.094 325.369,319.393 327.469,314.975C329.569,310.558 332.521,307.269 336.324,305.108C340.127,302.947 344.31,301.849 348.873,301.816C352.642,301.788 356.064,302.538 359.138,304.065C362.212,305.592 364.513,307.292 366.039,309.166C367.09,307.05 367.719,304.863 367.925,302.605L369.562,302.593L370.15,321.709L368.55,321.721C367.384,314.934 365.074,310.227 361.62,307.599C358.165,304.971 354.281,303.673 349.966,303.705C344.684,303.744 340.503,305.92 337.422,310.233C334.342,314.546 332.831,320.695 332.89,328.68C332.946,336.244 334.687,342.028 338.115,346.033C341.542,350.037 345.785,352.021 350.844,351.983C353.547,351.963 356.307,351.286 359.124,349.951C361.941,348.615 364.163,346.373 365.789,343.224C367.415,340.075 368.366,337.036 368.642,334.108ZM378.117,337.683C378.082,333.021 379.616,329.11 382.717,325.95C385.819,322.79 389.651,321.193 394.214,321.159C398.801,321.125 402.669,322.671 405.817,325.798C408.965,328.924 410.556,332.806 410.59,337.443C410.628,342.576 409.071,346.624 405.919,349.586C402.766,352.548 398.946,354.046 394.457,354.079C389.969,354.112 386.132,352.646 382.949,349.681C379.765,346.717 378.154,342.717 378.117,337.683ZM567.154,321.108L567.302,341.083C567.327,344.406 567.392,346.488 567.497,347.331C567.602,348.173 567.973,348.803 568.608,349.22C569.244,349.637 570.38,349.839 572.017,349.827L572.029,351.538C568.26,351.615 565.511,352.033 563.78,352.789L563.334,352.793C562.53,351.435 562.091,349.082 562.017,345.734C560.522,348.102 558.805,349.887 556.867,351.092C554.929,352.297 552.782,352.908 550.427,352.925C548.393,352.94 546.592,352.489 545.023,351.57C543.453,350.652 542.372,349.525 541.78,348.191C541.187,346.856 540.881,344.837 540.861,342.134L540.784,331.756C540.758,328.234 540.68,326.083 540.55,325.303C540.421,324.523 540.026,323.949 539.366,323.582C538.706,323.215 537.496,323.038 535.735,323.051L535.722,321.34L546.063,321.264L546.219,342.392C546.235,344.475 546.37,345.987 546.625,346.927C546.88,347.868 547.518,348.687 548.54,349.387C549.562,350.086 550.743,350.431 552.082,350.421C553.991,350.407 555.81,349.767 557.536,348.502C559.263,347.237 560.437,345.901 561.059,344.495C561.681,343.09 561.982,341.085 561.963,338.481L561.912,331.599C561.888,328.276 561.836,326.256 561.756,325.537C561.676,324.818 561.355,324.195 560.793,323.666C560.232,323.137 559.07,322.879 557.31,322.892L556.528,322.897L556.516,321.186L567.154,321.108ZM423.935,320.939L424.307,320.936C425.038,322.593 425.413,324.723 425.433,327.326C427.078,325.181 428.858,323.569 430.772,322.488C432.686,321.408 434.747,320.859 436.954,320.843C439.458,320.824 441.496,321.38 443.067,322.509C444.637,323.638 445.741,325.341 446.378,327.618C448.246,325.323 450.168,323.597 452.143,322.442C454.118,321.286 456.135,320.701 458.193,320.686C460.549,320.668 462.55,321.199 464.194,322.278C465.839,323.357 466.84,324.59 467.198,325.976C467.555,327.362 467.745,329.605 467.768,332.705L467.836,341.855C467.862,345.402 467.946,347.559 468.088,348.326C468.23,349.094 468.631,349.662 469.291,350.029C469.951,350.396 471.174,350.573 472.959,350.559L472.972,352.271L457.758,352.383L457.746,350.672C459.358,350.66 460.491,350.472 461.145,350.107C461.8,349.743 462.199,349.194 462.342,348.462C462.485,347.729 462.544,345.54 462.517,341.895L462.442,331.74C462.426,329.682 462.297,328.133 462.054,327.093C461.811,326.053 461.19,325.165 460.193,324.428C459.195,323.692 457.903,323.329 456.316,323.341C454.704,323.353 453.09,323.91 451.474,325.013C449.858,326.117 448.239,327.778 446.619,329.997L446.708,342.012C446.732,345.26 446.79,347.3 446.883,348.13C446.976,348.96 447.328,349.602 447.939,350.056C448.55,350.511 449.637,350.732 451.199,350.72L451.212,352.432L436.481,352.54L436.469,350.829C438.13,350.817 439.288,350.635 439.943,350.283C440.597,349.931 441.003,349.395 441.158,348.674C441.314,347.954 441.379,345.746 441.351,342.051L441.289,333.607C441.269,330.929 441.149,328.99 440.93,327.788C440.71,326.587 440.064,325.563 438.991,324.715C437.918,323.868 436.589,323.45 435.001,323.461C433.464,323.473 431.899,323.98 430.307,324.984C428.715,325.988 427.095,327.488 425.449,329.484L425.542,342.168C425.567,345.516 425.632,347.599 425.737,348.416C425.843,349.234 426.219,349.851 426.867,350.268C427.515,350.685 428.67,350.887 430.331,350.875L430.344,352.586L415.427,352.696L415.415,350.985C417.052,350.973 418.197,350.785 418.852,350.42C419.506,350.056 419.905,349.513 420.049,348.793C420.192,348.073 420.25,345.878 420.223,342.208L420.156,333.094C420.13,329.622 420.058,327.496 419.941,326.716C419.824,325.936 419.435,325.35 418.775,324.958C418.115,324.566 416.929,324.376 415.218,324.389L415.205,322.678C418.724,322.305 421.634,321.725 423.935,320.939ZM384.293,337.823C384.333,343.229 385.241,347.011 387.018,349.168C388.795,351.325 391.27,352.391 394.444,352.368C397.693,352.344 400.171,351.24 401.879,349.058C403.586,346.875 404.42,343.081 404.38,337.675C404.34,332.318 403.456,328.506 401.728,326.237C400,323.968 397.5,322.846 394.226,322.87C390.978,322.894 388.5,324.047 386.793,326.329C385.087,328.611 384.253,332.442 384.293,337.823ZM485.05,320.487L485.422,320.484C486.154,322.141 486.529,324.271 486.548,326.874C488.194,324.729 489.974,323.117 491.888,322.036C493.802,320.956 495.862,320.407 498.069,320.391C500.574,320.372 502.612,320.928 504.182,322.057C505.753,323.186 506.857,324.889 507.494,327.166C509.362,324.871 511.283,323.145 513.259,321.99C515.234,320.834 517.251,320.249 519.309,320.234C521.665,320.216 523.665,320.747 525.31,321.826C526.955,322.905 527.956,324.138 528.313,325.524C528.671,326.91 528.861,329.153 528.884,332.253L528.952,341.403C528.978,344.95 529.062,347.107 529.204,347.874C529.346,348.642 529.747,349.21 530.407,349.577C531.067,349.944 532.29,350.121 534.075,350.107L534.088,351.819L518.874,351.931L518.861,350.22C520.473,350.208 521.606,350.02 522.261,349.655C522.915,349.291 523.314,348.742 523.458,348.01C523.601,347.277 523.659,345.088 523.632,341.443L523.557,331.288C523.542,329.23 523.413,327.681 523.169,326.641C522.926,325.601 522.306,324.713 521.308,323.976C520.311,323.24 519.019,322.877 517.432,322.889C515.82,322.901 514.206,323.458 512.589,324.561C510.973,325.665 509.355,327.326 507.734,329.545L507.823,341.56C507.847,344.808 507.906,346.848 507.999,347.678C508.092,348.508 508.444,349.15 509.055,349.604C509.666,350.059 510.752,350.28 512.315,350.268L512.327,351.98L497.597,352.088L497.584,350.377C499.246,350.365 500.404,350.183 501.058,349.831C501.713,349.479 502.118,348.943 502.274,348.222C502.43,347.502 502.494,345.294 502.467,341.599L502.404,333.155C502.385,330.477 502.265,328.538 502.045,327.336C501.826,326.135 501.179,325.111 500.107,324.263C499.034,323.416 497.704,322.998 496.117,323.009C494.58,323.021 493.015,323.528 491.423,324.532C489.83,325.536 488.211,327.036 486.564,329.032L486.658,341.716C486.683,345.064 486.748,347.147 486.853,347.964C486.958,348.782 487.335,349.399 487.983,349.816C488.63,350.233 489.785,350.435 491.447,350.423L491.459,352.134L476.543,352.244L476.53,350.533C478.167,350.521 479.313,350.333 479.967,349.968C480.622,349.604 481.021,349.061 481.164,348.341C481.308,347.621 481.366,345.426 481.339,341.756L481.271,332.642C481.246,329.17 481.174,327.044 481.057,326.264C480.939,325.484 480.551,324.898 479.891,324.506C479.23,324.114 478.045,323.924 476.334,323.937L476.321,322.226C479.84,321.853 482.75,321.273 485.05,320.487ZM636.574,352.028L636.5,342.022L637.951,342.011C639.68,347.776 642.714,350.643 647.054,350.611C648.939,350.597 650.342,350.016 651.263,348.869C652.185,347.721 652.64,346.465 652.63,345.102C652.619,343.514 652.113,342.216 651.114,341.207C650.089,340.198 648.109,338.985 645.172,337.568C642.086,336.078 639.868,334.606 638.518,333.153C637.168,331.725 636.485,329.957 636.47,327.849C636.455,325.84 637.16,323.919 638.585,322.086C640.01,320.253 642.024,319.326 644.628,319.307C647.281,319.287 649.484,320.35 651.236,322.494C651.605,322.12 652.082,321.211 652.666,319.768L654.043,319.758L654.112,329.169L652.736,329.179C652.223,326.926 651.248,324.993 649.81,323.379C648.372,321.765 646.686,320.966 644.752,320.98C643.264,320.991 642.064,321.459 641.154,322.383C640.243,323.307 639.792,324.377 639.801,325.592C639.811,326.931 640.328,328.081 641.352,329.04C642.351,330.025 644.256,331.139 647.068,332.383C651.298,334.261 653.891,336.102 654.846,337.906C655.802,339.734 656.286,341.491 656.299,343.177C656.319,345.831 655.46,347.995 653.724,349.669C651.988,351.343 649.794,352.19 647.14,352.21C644.338,352.231 641.837,351.096 639.638,348.806C638.974,349.555 638.436,350.625 638.025,352.017L636.574,352.028ZM679.578,321.987L670.39,322.055L670.526,340.468C670.547,343.295 670.685,345.197 670.941,346.175C671.196,347.153 671.729,347.936 672.539,348.525C673.349,349.115 674.213,349.406 675.131,349.399C676.916,349.386 678.459,348.358 679.758,346.314L680.953,347.012C680.197,348.655 679.071,349.897 677.577,350.739C676.083,351.581 674.567,352.007 673.03,352.019C671.244,352.032 669.672,351.516 668.313,350.472C666.953,349.429 666.101,348.201 665.756,346.79C665.411,345.379 665.225,342.9 665.199,339.354L665.071,322.095L660.644,322.127L660.632,320.416C662.665,320.352 664.481,319.483 666.081,317.809C667.68,316.136 668.692,313.797 669.116,310.793L670.307,310.784L670.378,320.344L679.565,320.276L679.578,321.987ZM584.219,319.754L585.223,319.746C585.805,321.28 586.143,323.373 586.237,326.026C588.007,323.904 589.867,322.316 591.819,321.26C593.77,320.204 595.812,319.668 597.945,319.652C600.375,319.634 602.369,320.128 603.926,321.133C605.484,322.138 606.491,323.377 606.948,324.849C607.406,326.322 607.645,328.471 607.666,331.298L607.736,340.821C607.762,344.342 607.84,346.487 607.97,347.255C608.099,348.022 608.494,348.596 609.154,348.976C609.814,349.355 611.024,349.538 612.785,349.525L612.798,351.236L597.212,351.352L597.199,349.641L597.906,349.635C599.692,349.622 600.855,349.353 601.397,348.828C601.939,348.304 602.244,347.694 602.313,346.999C602.383,346.304 602.405,344.258 602.38,340.86L602.307,331.04C602.289,328.635 602.159,326.918 601.915,325.891C601.672,324.864 601.033,323.957 599.998,323.171C598.963,322.385 597.652,321.998 596.065,322.01C594.255,322.023 592.529,322.575 590.888,323.666C589.247,324.757 587.703,326.387 586.256,328.555L586.347,340.979C586.373,344.5 586.458,346.645 586.6,347.413C586.742,348.18 587.143,348.754 587.803,349.134C588.463,349.513 589.685,349.696 591.471,349.683L591.484,351.394L576.084,351.508L576.071,349.797C577.782,349.784 578.971,349.602 579.638,349.25C580.305,348.898 580.717,348.368 580.873,347.66C581.029,346.952 581.093,344.738 581.065,341.018L580.998,331.942C580.972,328.396 580.888,326.245 580.746,325.49C580.604,324.734 580.203,324.167 579.543,323.787C578.883,323.408 577.66,323.225 575.875,323.238L575.862,321.527C578.588,321.209 581.373,320.618 584.219,319.754ZM626.475,319.441L626.632,340.681C626.656,343.93 626.721,345.975 626.827,346.818C626.932,347.66 627.296,348.302 627.92,348.744C628.543,349.186 629.648,349.401 631.235,349.389L632.016,349.383L632.029,351.094L615.625,351.216L615.612,349.504L616.877,349.495C618.638,349.482 619.783,349.219 620.312,348.707C620.841,348.195 621.147,347.585 621.228,346.878C621.31,346.17 621.338,344.118 621.313,340.72L621.245,331.495C621.219,327.924 621.035,325.743 620.694,324.952C620.354,324.161 619.904,323.669 619.344,323.474C618.785,323.28 617.811,323.188 616.422,323.198L615.418,323.206L615.405,321.495C619.816,321.016 623.233,320.333 625.657,319.447L626.475,319.441ZM774.38,344.461L775.756,344.451C775.564,348.693 773.497,350.829 769.554,350.858C767.868,350.871 766.532,350.434 765.546,349.549C764.559,348.663 763.911,347.341 763.6,345.583C761.134,347.362 758.881,348.705 756.841,349.613C754.802,350.521 752.976,350.981 751.365,350.993C749.306,351.008 747.529,350.426 746.032,349.247C744.535,348.067 743.78,346.498 743.765,344.539C743.746,341.985 744.976,339.744 747.454,337.816C749.932,335.888 753.359,334.003 757.735,332.16L763.483,329.774L763.472,328.286C763.457,326.178 763.309,324.654 763.029,323.714C762.75,322.773 762.037,321.935 760.89,321.2C759.744,320.464 758.241,320.103 756.381,320.117C752.662,320.145 750.6,321.4 750.197,323.883C749.819,326.415 748.787,327.688 747.1,327.7C745.588,327.711 744.826,326.998 744.815,325.56C744.805,324.146 745.798,322.62 747.795,320.981C749.791,319.341 752.91,318.506 757.15,318.475C760.3,318.451 762.746,318.929 764.489,319.908C766.233,320.888 767.388,322.007 767.955,323.268C768.522,324.529 768.816,326.461 768.835,329.065L768.926,341.377C768.947,344.254 769.11,346.1 769.413,346.916C769.717,347.732 770.365,348.137 771.357,348.129C772.993,348.117 774.001,346.895 774.38,344.461ZM825.058,320.911L815.87,320.979L816.006,339.392C816.027,342.219 816.165,344.121 816.42,345.099C816.675,346.077 817.208,346.86 818.019,347.449C818.829,348.039 819.693,348.33 820.61,348.323C822.396,348.31 823.938,347.282 825.238,345.239L826.433,345.936C825.676,347.579 824.551,348.821 823.057,349.663C821.563,350.505 820.047,350.931 818.509,350.943C816.724,350.956 815.152,350.44 813.792,349.397C812.433,348.353 811.581,347.125 811.235,345.714C810.89,344.303 810.704,341.824 810.678,338.278L810.551,321.019L806.124,321.051L806.111,319.34C808.145,319.276 809.961,318.407 811.561,316.733C813.16,315.06 814.172,312.721 814.596,309.717L815.787,309.708L815.857,319.268L825.045,319.2L825.058,320.911ZM717.482,326.729L717.561,337.33C717.59,341.298 717.702,343.895 717.897,345.121C718.092,346.347 718.601,347.255 719.424,347.844C720.247,348.433 721.786,348.719 724.043,348.703L725.717,348.69L725.73,350.401L702.63,350.572L702.617,348.861L703.956,348.851C706.114,348.835 707.606,348.551 708.433,348C709.259,347.448 709.78,346.595 709.995,345.44C710.209,344.285 710.301,341.6 710.27,337.384L710.087,312.648C710.057,308.63 709.927,306.04 709.695,304.876C709.463,303.712 708.961,302.91 708.189,302.469C707.417,302.028 705.754,301.817 703.199,301.836L702.27,301.843L702.257,300.132L708.579,299.862C713.636,299.651 717.579,299.535 720.406,299.514C725.613,299.476 729.628,299.855 732.448,300.653C735.269,301.45 737.586,302.884 739.399,304.954C741.212,307.024 742.131,309.646 742.154,312.82C742.175,315.572 741.579,318.007 740.367,320.124C739.155,322.241 737.406,323.854 735.12,324.962C732.835,326.07 728.803,326.645 723.025,326.688L717.482,326.729ZM789.086,326.013C789.913,323.8 791.269,321.942 793.156,320.44C795.042,318.939 796.89,318.181 798.7,318.167C800.337,318.155 801.63,318.654 802.58,319.664C803.53,320.674 804.009,321.712 804.016,322.778C804.022,323.497 803.785,324.119 803.305,324.643C802.825,325.168 802.238,325.432 801.544,325.438C800.304,325.447 799.355,324.536 798.696,322.706C798.241,321.469 797.567,320.854 796.674,320.861C795.608,320.869 794.336,321.604 792.859,323.065C791.382,324.527 790.438,326.04 790.028,327.606C789.618,329.171 789.423,331.318 789.443,334.046L789.483,339.477C789.507,342.725 789.566,344.771 789.659,345.613C789.752,346.456 790.11,347.098 790.733,347.54C791.357,347.981 792.462,348.196 794.049,348.185L795.09,348.177L795.103,349.888L778.922,350.008L778.909,348.297L779.691,348.291C781.179,348.28 782.237,348.068 782.867,347.654C783.496,347.24 783.87,346.66 783.988,345.916C784.107,345.171 784.153,343.038 784.127,339.516L784.063,330.924C784.039,327.65 783.981,325.598 783.888,324.768C783.795,323.938 783.437,323.296 782.813,322.842C782.19,322.388 781.085,322.167 779.498,322.178L778.716,322.184L778.704,320.51C781.033,320.22 784.078,319.466 787.838,318.248C788.572,320.202 788.988,322.79 789.086,326.013ZM763.496,331.522L759.454,333.189C753.075,335.84 749.9,339.137 749.93,343.08C749.941,344.642 750.36,345.898 751.185,346.846C752.01,347.795 753.08,348.265 754.395,348.255C755.56,348.246 756.909,347.852 758.441,347.072C759.972,346.292 761.687,345.126 763.586,343.574L763.496,331.522ZM717.468,324.869L721.077,324.842C723.978,324.821 726.319,324.512 728.101,323.916C729.882,323.32 731.361,322.088 732.537,320.219C733.714,318.351 734.292,316.052 734.272,313.324C734.241,309.158 733.195,306.109 731.135,304.178C729.075,302.246 725.751,301.298 721.163,301.332C719.477,301.344 718.188,301.403 717.296,301.509L717.468,324.869ZM619.181,303.946C619.173,302.879 619.545,301.959 620.295,301.185C621.046,300.41 621.955,300.019 623.021,300.011C624.087,300.003 624.995,300.381 625.745,301.144C626.494,301.908 626.873,302.822 626.881,303.889C626.889,304.98 626.524,305.913 625.786,306.687C625.048,307.461 624.145,307.852 623.079,307.86C622.013,307.868 621.098,307.49 620.336,306.727C619.574,305.964 619.189,305.037 619.181,303.946ZM439.987,270.75L441.363,270.74C441.171,274.982 439.104,277.117 435.161,277.147C433.475,277.159 432.139,276.723 431.152,275.837C430.166,274.952 429.518,273.63 429.207,271.871C426.741,273.65 424.488,274.994 422.448,275.901C420.409,276.809 418.583,277.269 416.972,277.281C414.913,277.296 413.136,276.714 411.639,275.535C410.142,274.356 409.387,272.786 409.372,270.827C409.353,268.273 410.583,266.032 413.061,264.104C415.539,262.176 418.966,260.291 423.342,258.448L429.09,256.062L429.079,254.574C429.064,252.466 428.916,250.942 428.636,250.002C428.357,249.062 427.644,248.224 426.497,247.488C425.351,246.753 423.848,246.392 421.988,246.406C418.269,246.433 416.207,247.688 415.804,250.171C415.426,252.704 414.394,253.976 412.707,253.989C411.195,254 410.433,253.286 410.422,251.848C410.412,250.434 411.405,248.908 413.402,247.269C415.398,245.63 418.517,244.794 422.757,244.763C425.907,244.74 428.353,245.218 430.096,246.197C431.839,247.176 432.995,248.296 433.562,249.556C434.129,250.817 434.423,252.749 434.442,255.353L434.533,267.665C434.554,270.542 434.717,272.388 435.02,273.204C435.324,274.021 435.972,274.425 436.964,274.418C438.6,274.406 439.608,273.183 439.987,270.75ZM371.111,268.134L389.178,226.263L404.652,226.148L404.665,227.859L402.805,227.873C400.325,227.892 398.702,228.108 397.937,228.523C397.171,228.938 396.662,229.704 396.41,230.822C396.158,231.94 396.047,234.594 396.078,238.785L396.261,263.522C396.291,267.489 396.409,270.086 396.616,271.312C396.824,272.538 397.333,273.446 398.143,274.035C398.953,274.624 400.499,274.911 402.781,274.894L405.013,274.877L405.025,276.588L380.921,276.767L380.909,275.055L382.694,275.042C384.827,275.027 386.306,274.743 387.133,274.191C387.96,273.639 388.487,272.786 388.714,271.631C388.941,270.476 389.039,267.791 389.008,263.575L388.77,231.474L369.13,276.854L367.381,276.867L346.923,231.783L347.141,261.318C347.171,265.36 347.316,268.112 347.574,269.573C347.833,271.035 348.611,272.312 349.909,273.406C351.207,274.5 353.022,275.113 355.354,275.244L355.367,276.956L337.326,277.089L337.313,275.378C339.47,275.238 341.22,274.636 342.563,273.572C343.907,272.508 344.722,271.206 345.008,269.667C345.295,268.127 345.422,265.274 345.391,261.108L345.229,239.161C345.199,235.144 345.062,232.553 344.818,231.39C344.574,230.226 344.072,229.424 343.312,228.983C342.553,228.542 340.896,228.331 338.342,228.35L336.965,228.36L336.953,226.649L352.315,226.535L371.111,268.134ZM552.625,255.334L531.385,255.492C531.297,256.955 531.255,258.047 531.261,258.766C531.3,264.123 532.167,268.14 533.861,270.818C535.554,273.496 538.063,274.823 541.386,274.799C545.899,274.765 549.083,272.721 550.938,268.664L552.723,268.651C551.949,271.187 550.389,273.176 548.043,274.619C545.698,276.063 543.137,276.794 540.359,276.815C537.78,276.834 535.339,276.201 533.035,274.916C530.732,273.631 528.84,271.804 527.359,269.434C525.878,267.064 525.125,264.181 525.1,260.783C525.065,255.972 526.449,251.963 529.252,248.756C532.056,245.548 535.578,243.929 539.818,243.897C543.811,243.868 546.907,245.06 549.107,247.474C551.307,249.888 552.48,252.508 552.625,255.334ZM558.77,276.418L558.696,266.412L560.147,266.402C561.876,272.167 564.91,275.034 569.25,275.002C571.135,274.988 572.538,274.407 573.459,273.259C574.381,272.112 574.836,270.856 574.826,269.492C574.814,267.905 574.309,266.607 573.309,265.597C572.285,264.588 570.305,263.375 567.368,261.959C564.282,260.469 562.064,258.997 560.714,257.544C559.364,256.115 558.681,254.347 558.666,252.239C558.651,250.231 559.356,248.31 560.781,246.476C562.205,244.643 564.22,243.717 566.824,243.698C569.477,243.678 571.68,244.74 573.431,246.885C573.801,246.51 574.278,245.602 574.862,244.159L576.238,244.149L576.308,253.56L574.932,253.57C574.419,251.317 573.444,249.384 572.006,247.77C570.568,246.156 568.882,245.356 566.948,245.371C565.46,245.382 564.26,245.849 563.35,246.774C562.439,247.698 561.988,248.768 561.997,249.983C562.007,251.322 562.524,252.471 563.548,253.431C564.547,254.416 566.452,255.53 569.264,256.774C573.494,258.652 576.086,260.493 577.042,262.296C577.998,264.124 578.482,265.882 578.495,267.568C578.514,270.221 577.656,272.385 575.92,274.06C574.184,275.734 571.989,276.581 569.336,276.601C566.534,276.621 564.033,275.487 561.834,273.197C561.17,273.945 560.632,275.016 560.221,276.408L558.77,276.418ZM601.774,246.378L592.586,246.446L592.722,264.859C592.743,267.686 592.881,269.588 593.136,270.566C593.392,271.543 593.924,272.327 594.735,272.916C595.545,273.505 596.409,273.796 597.327,273.79C599.112,273.776 600.654,272.748 601.954,270.705L603.149,271.403C602.393,273.045 601.267,274.288 599.773,275.129C598.279,275.971 596.763,276.398 595.226,276.409C593.44,276.422 591.868,275.907 590.508,274.863C589.149,273.819 588.297,272.592 587.952,271.181C587.606,269.77 587.421,267.291 587.394,263.745L587.267,246.485L582.84,246.518L582.828,244.807C584.861,244.742 586.677,243.873 588.277,242.2C589.876,240.526 590.888,238.188 591.312,235.184L592.503,235.175L592.573,244.735L601.761,244.667L601.774,246.378ZM452.441,244.544L453.445,244.536C454.027,246.069 454.365,248.162 454.459,250.815C456.229,248.694 458.09,247.106 460.041,246.05C461.992,244.994 464.034,244.458 466.167,244.442C468.597,244.424 470.591,244.918 472.148,245.923C473.706,246.928 474.713,248.167 475.17,249.639C475.628,251.111 475.867,253.261 475.888,256.088L475.958,265.611C475.984,269.132 476.062,271.277 476.192,272.044C476.321,272.812 476.716,273.386 477.376,273.765C478.036,274.145 479.247,274.328 481.007,274.315L481.02,276.026L465.434,276.142L465.422,274.43L466.128,274.425C467.914,274.412 469.077,274.143 469.619,273.618C470.161,273.093 470.466,272.484 470.536,271.789C470.605,271.094 470.627,269.048 470.602,265.65L470.529,255.83C470.511,253.425 470.381,251.708 470.138,250.681C469.894,249.653 469.255,248.747 468.22,247.961C467.185,247.175 465.874,246.788 464.287,246.8C462.477,246.813 460.751,247.365 459.11,248.456C457.469,249.547 455.925,251.177 454.478,253.345L454.57,265.769C454.596,269.29 454.68,271.435 454.822,272.202C454.964,272.97 455.365,273.544 456.025,273.923C456.685,274.303 457.908,274.486 459.693,274.473L459.706,276.184L444.306,276.298L444.293,274.587C446.004,274.574 447.193,274.392 447.86,274.04C448.527,273.687 448.939,273.157 449.095,272.449C449.251,271.741 449.315,269.528 449.288,265.808L449.22,256.732C449.194,253.185 449.11,251.035 448.968,250.279C448.826,249.524 448.425,248.957 447.765,248.577C447.105,248.198 445.882,248.014 444.097,248.028L444.084,246.317C446.81,245.999 449.595,245.408 452.441,244.544ZM606.002,259.813C605.968,255.151 607.501,251.24 610.603,248.08C613.704,244.919 617.536,243.323 622.099,243.289C626.687,243.255 630.555,244.801 633.703,247.927C636.85,251.054 638.441,254.935 638.476,259.573C638.514,264.706 636.957,268.754 633.804,271.716C630.652,274.678 626.831,276.175 622.343,276.209C617.854,276.242 614.018,274.776 610.834,271.811C607.65,268.846 606.04,264.847 606.002,259.813ZM494.697,244.231L494.855,265.471C494.879,268.719 494.943,270.765 495.049,271.607C495.154,272.45 495.518,273.092 496.142,273.534C496.765,273.975 497.87,274.19 499.457,274.179L500.238,274.173L500.251,275.884L483.847,276.005L483.834,274.294L485.099,274.285C486.86,274.272 488.005,274.009 488.534,273.497C489.064,272.985 489.369,272.375 489.451,271.667C489.532,270.96 489.56,268.908 489.535,265.51L489.467,256.285C489.441,252.714 489.257,250.533 488.916,249.742C488.576,248.951 488.126,248.458 487.566,248.264C487.007,248.07 486.033,247.978 484.644,247.988L483.64,247.996L483.627,246.284C488.038,245.805 491.455,245.123 493.879,244.237L494.697,244.231ZM520.001,245.271L520.014,246.983L513.653,247.03L513.788,265.331C513.812,268.579 513.871,270.625 513.964,271.467C514.057,272.31 514.415,272.952 515.038,273.394C515.661,273.836 516.767,274.051 518.354,274.039L519.953,274.027L519.966,275.738L503.487,275.86L503.475,274.149C505.186,274.136 506.369,273.954 507.023,273.602C507.678,273.25 508.083,272.72 508.239,272.012C508.395,271.304 508.459,269.09 508.432,265.37L508.296,247.069L502.605,247.111L502.592,245.4L508.284,245.358L508.263,242.606C508.241,239.531 508.347,237.149 508.582,235.461C508.818,233.773 509.506,232.025 510.645,230.219C511.785,228.413 513.226,227.019 514.967,226.039C516.708,225.059 518.781,224.56 521.187,224.543C524.113,224.521 526.461,225.111 528.231,226.313C530,227.515 530.89,228.749 530.899,230.013C530.904,230.733 530.661,231.33 530.168,231.804C529.676,232.279 529.095,232.519 528.425,232.524C527.111,232.534 525.901,231.526 524.795,229.501C523.563,227.278 521.98,226.173 520.046,226.188C518.483,226.199 517.118,226.774 515.948,227.911C514.778,229.048 514.088,230.46 513.877,232.148C513.667,233.836 513.582,237.457 513.623,243.012L513.64,245.319L520.001,245.271ZM663.138,259.39C663.103,254.728 664.637,250.817 667.738,247.657C670.84,244.497 674.672,242.9 679.235,242.866C683.822,242.832 687.69,244.378 690.838,247.505C693.986,250.631 695.577,254.513 695.611,259.15C695.649,264.283 694.092,268.331 690.94,271.293C687.787,274.255 683.967,275.753 679.478,275.786C674.99,275.819 671.153,274.353 667.969,271.389C664.786,268.424 663.175,264.424 663.138,259.39ZM769.87,245.135L760.682,245.203L760.818,263.615C760.839,266.442 760.977,268.345 761.232,269.323C761.487,270.3 762.02,271.084 762.831,271.673C763.641,272.262 764.505,272.553 765.422,272.546C767.208,272.533 768.75,271.505 770.05,269.462L771.245,270.16C770.488,271.802 769.363,273.044 767.869,273.886C766.375,274.728 764.859,275.155 763.321,275.166C761.536,275.179 759.964,274.664 758.604,273.62C757.245,272.576 756.393,271.348 756.047,269.937C755.702,268.526 755.516,266.048 755.49,262.502L755.363,245.242L750.936,245.275L750.923,243.564C752.956,243.499 754.773,242.63 756.372,240.957C757.972,239.283 758.984,236.944 759.408,233.941L760.598,233.932L760.669,243.492L769.857,243.424L769.87,245.135ZM842.134,253.193L820.894,253.35C820.805,254.814 820.764,255.906 820.769,256.625C820.809,261.981 821.676,265.999 823.369,268.677C825.063,271.355 827.572,272.682 830.895,272.657C835.408,272.624 838.592,270.579 840.447,266.523L842.232,266.51C841.457,269.045 839.897,271.035 837.552,272.478C835.207,273.921 832.645,274.653 829.868,274.674C827.289,274.693 824.848,274.06 822.544,272.775C820.241,271.49 818.349,269.663 816.868,267.293C815.387,264.923 814.634,262.039 814.609,258.642C814.573,253.831 815.957,249.822 818.761,246.614C821.564,243.407 825.086,241.788 829.327,241.756C833.319,241.727 836.416,242.919 838.616,245.333C840.816,247.747 841.989,250.367 842.134,253.193ZM429.103,257.81L425.061,259.477C418.682,262.128 415.507,265.425 415.537,269.368C415.548,270.931 415.967,272.186 416.792,273.135C417.617,274.083 418.687,274.553 420.002,274.543C421.167,274.535 422.516,274.14 424.048,273.36C425.579,272.58 427.294,271.414 429.193,269.862L429.103,257.81ZM612.178,259.953C612.218,265.359 613.127,269.141 614.904,271.298C616.68,273.454 619.156,274.521 622.33,274.498C625.579,274.474 628.057,273.37 629.764,271.188C631.471,269.005 632.305,265.211 632.265,259.805C632.226,254.448 631.342,250.636 629.614,248.367C627.886,246.098 625.385,244.976 622.112,245C618.863,245.024 616.386,246.177 614.679,248.459C612.972,250.74 612.139,254.572 612.178,259.953ZM716.813,243.816L716.826,245.527L710.465,245.574L710.6,263.875C710.624,267.124 710.683,269.169 710.776,270.012C710.869,270.854 711.227,271.497 711.85,271.938C712.474,272.38 713.579,272.595 715.166,272.583L716.766,272.572L716.778,274.283L700.3,274.404L700.287,272.693C701.998,272.681 703.181,272.498 703.835,272.146C704.49,271.794 704.895,271.264 705.051,270.556C705.207,269.848 705.272,267.635 705.244,263.915L705.109,245.614L699.417,245.656L699.405,243.945L705.096,243.903L705.076,241.15C705.053,238.075 705.159,235.693 705.395,234.005C705.63,232.317 706.318,230.57 707.458,228.763C708.598,226.957 710.038,225.564 711.779,224.584C713.52,223.604 715.594,223.105 717.999,223.087C720.925,223.065 723.273,223.656 725.043,224.858C726.813,226.06 727.702,227.293 727.711,228.558C727.717,229.277 727.473,229.874 726.981,230.349C726.488,230.824 725.907,231.064 725.238,231.069C723.923,231.078 722.713,230.07 721.607,228.045C720.375,225.822 718.792,224.718 716.858,224.732C715.296,224.744 713.93,225.318 712.76,226.455C711.591,227.592 710.901,229.005 710.69,230.693C710.479,232.38 710.394,236.002 710.435,241.557L710.452,243.863L716.813,243.816ZM669.314,259.531C669.354,264.937 670.262,268.718 672.039,270.875C673.816,273.032 676.291,274.098 679.465,274.075C682.714,274.051 685.192,272.948 686.899,270.765C688.607,268.582 689.441,264.788 689.401,259.382C689.361,254.026 688.477,250.213 686.749,247.944C685.021,245.675 682.521,244.553 679.247,244.577C675.999,244.601 673.521,245.754 671.814,248.036C670.108,250.318 669.274,254.149 669.314,259.531ZM783.62,248.344C785.093,246.25 786.749,244.675 788.588,243.62C790.428,242.565 792.452,242.029 794.659,242.013C797.163,241.994 799.244,242.499 800.901,243.529C802.558,244.558 803.64,245.834 804.147,247.355C804.654,248.876 804.92,251.348 804.946,254.77L805.008,263.177C805.034,266.748 805.119,268.917 805.261,269.685C805.403,270.453 805.81,271.014 806.482,271.369C807.154,271.723 808.396,271.894 810.206,271.88L810.218,273.592L794.484,273.708L794.471,271.997L795.178,271.992C796.988,271.978 798.158,271.709 798.687,271.184C799.217,270.66 799.522,270.044 799.604,269.336C799.685,268.629 799.714,266.589 799.689,263.216L799.621,254.066C799.602,251.536 799.44,249.665 799.133,248.452C798.826,247.239 798.118,246.24 797.009,245.455C795.9,244.669 794.514,244.283 792.853,244.295C790.918,244.309 789.187,244.886 787.658,246.026C786.128,247.166 784.789,248.868 783.641,251.134L783.731,263.334C783.756,266.757 783.828,268.864 783.945,269.657C784.062,270.449 784.445,271.048 785.093,271.452C785.741,271.857 786.92,272.053 788.631,272.04L788.644,273.751L773.17,273.866L773.157,272.154L773.938,272.149C775.724,272.135 776.881,271.873 777.41,271.36C777.94,270.848 778.245,270.238 778.327,269.531C778.409,268.823 778.437,266.771 778.412,263.374L778.187,233.02C778.164,229.945 777.859,228.001 777.27,227.187C776.681,226.373 775.283,225.974 773.076,225.99L773.063,224.279C776.907,224.251 780.102,223.706 782.649,222.646L783.43,222.64L783.62,248.344ZM546.104,253.895C546.175,253.324 546.208,252.815 546.205,252.369C546.189,250.187 545.537,248.499 544.251,247.306C542.965,246.112 541.393,245.522 539.533,245.536C535.019,245.57 532.349,248.392 531.523,254.003L546.104,253.895ZM835.613,251.754C835.683,251.183 835.717,250.674 835.713,250.228C835.697,248.045 835.046,246.358 833.76,245.164C832.474,243.971 830.901,243.381 829.041,243.395C824.528,243.428 821.858,246.251 821.032,251.861L835.613,251.754ZM487.403,228.736C487.395,227.669 487.767,226.749 488.517,225.975C489.268,225.2 490.177,224.809 491.243,224.801C492.309,224.793 493.217,225.171 493.967,225.934C494.717,226.697 495.095,227.612 495.103,228.679C495.111,229.77 494.746,230.702 494.008,231.477C493.27,232.251 492.367,232.642 491.301,232.65C490.235,232.658 489.321,232.28 488.558,231.517C487.796,230.754 487.411,229.827 487.403,228.736Z" style="fill:rgb(230,220,29);fill-rule:nonzero;"/>
            </g>
            <g transform="matrix(0.257583,-0.04735,0.04735,0.257583,810.734,969.476)">
                <path d="M762.215,920.409C764.305,918.013 766.429,916.807 768.586,916.791C769.777,916.782 770.703,917.098 771.365,917.737C772.026,918.377 772.36,919.082 772.366,919.85C772.378,921.487 771.64,922.311 770.152,922.322C769.334,922.328 768.623,921.825 768.021,920.812C767.468,919.874 766.894,919.407 766.299,919.412C765.357,919.419 764.32,920.071 763.189,921.369C764.493,923.393 765.154,925.546 765.171,927.827C765.193,930.803 764.146,933.439 762.03,935.737C759.915,938.059 756.328,939.325 751.271,939.536C746.015,939.749 743.394,940.834 743.408,942.793C743.415,943.711 744.015,944.351 745.208,944.715C746.377,945.103 748.834,945.382 752.58,945.553C756.673,945.721 759.825,946.076 762.036,946.617C764.248,947.159 766.017,948.268 767.343,949.945C768.67,951.621 769.342,953.625 769.359,955.956C769.384,959.23 768.064,961.881 765.401,963.909C762.737,965.937 758.889,966.97 753.855,967.008C749.242,967.042 745.54,966.176 742.75,964.411C739.959,962.646 738.554,960.4 738.534,957.672C738.522,956.159 738.91,954.917 739.696,953.944C740.483,952.971 741.608,952.479 743.071,952.468C743.467,952.465 743.828,952.524 744.151,952.646C742.626,954.344 741.87,956.135 741.884,958.019C741.9,960.202 742.937,961.998 744.993,963.409C747.049,964.82 750.111,965.51 754.178,965.48C757.799,965.453 760.614,964.707 762.624,963.241C764.635,961.776 765.632,959.915 765.615,957.658C765.597,955.178 764.678,953.436 762.861,952.433C761.043,951.455 757.815,950.883 753.176,950.719C747.843,950.535 744.379,949.904 742.783,948.824C741.188,947.77 740.385,946.399 740.372,944.713C740.348,941.465 742.602,939.402 747.134,938.525C744.768,937.154 742.983,935.58 741.779,933.803C740.576,932.027 739.966,930.035 739.95,927.828C739.927,924.728 741.129,922.084 743.555,919.896C745.982,917.708 748.869,916.602 752.217,916.577C756.358,916.546 759.691,917.824 762.215,920.409ZM467.443,930.215L446.203,930.372C446.115,931.836 446.073,932.927 446.079,933.647C446.118,939.003 446.985,943.02 448.679,945.699C450.373,948.377 452.881,949.704 456.204,949.679C460.717,949.646 463.901,947.601 465.756,943.545L467.542,943.532C466.767,946.067 465.207,948.056 462.861,949.5C460.516,950.943 457.955,951.675 455.177,951.696C452.598,951.715 450.157,951.082 447.854,949.797C445.55,948.512 443.658,946.684 442.177,944.315C440.697,941.945 439.944,939.061 439.918,935.664C439.883,930.853 441.267,926.844 444.07,923.636C446.874,920.429 450.396,918.809 454.636,918.778C458.629,918.748 461.725,919.941 463.925,922.355C466.126,924.769 467.298,927.389 467.443,930.215ZM498.897,922.914L498.809,911.011C498.785,907.763 498.727,905.717 498.634,904.875C498.54,904.032 498.182,903.39 497.559,902.948C496.936,902.506 495.831,902.291 494.244,902.303L493.462,902.309L493.45,900.598C496.45,900.501 499.732,899.956 503.296,898.963L504.077,898.957L504.38,939.911C504.406,943.458 504.484,945.615 504.613,946.382C504.743,947.15 505.138,947.718 505.798,948.085C506.458,948.452 507.68,948.629 509.466,948.616L509.479,950.327C505.883,950.428 502.687,950.774 499.889,951.365C499.583,950.202 499.42,948.368 499.402,945.863C497.58,947.712 495.699,949.102 493.76,950.034C491.82,950.966 489.808,951.439 487.725,951.455C483.782,951.484 480.367,949.922 477.479,946.769C474.592,943.616 473.131,939.783 473.098,935.27C473.061,930.31 474.494,926.288 477.398,923.204C480.301,920.119 483.774,918.562 487.816,918.532C489.875,918.517 491.824,918.875 493.665,919.605C495.505,920.336 497.249,921.439 498.897,922.914ZM393.494,900.481L393.996,913.051L392.247,913.064C391.88,910.314 391.088,908.045 389.872,906.256C388.656,904.467 387.389,903.354 386.072,902.917C384.754,902.481 382.533,902.274 379.408,902.297L369.551,902.37L369.709,923.758L374.433,923.723C377.483,923.701 379.507,923.171 380.504,922.135C381.5,921.098 381.987,919.03 381.964,915.93L383.824,915.916L383.956,933.697L382.096,933.711C382.08,931.553 381.85,929.85 381.407,928.601C380.964,927.352 380.313,926.501 379.454,926.048C378.595,925.596 376.925,925.379 374.446,925.397L369.722,925.432L369.814,937.968C369.844,941.936 369.962,944.532 370.169,945.759C370.377,946.985 370.886,947.892 371.696,948.481C372.507,949.071 374.065,949.357 376.371,949.34L378.082,949.327L378.095,951.038L354.66,951.211L354.648,949.5L356.21,949.489C358.367,949.473 359.86,949.189 360.686,948.637C361.513,948.086 362.04,947.232 362.267,946.077C362.494,944.922 362.592,942.237 362.561,938.021L362.378,913.285C362.348,909.268 362.211,906.677 361.967,905.513C361.723,904.35 361.221,903.547 360.461,903.107C359.701,902.666 358.045,902.455 355.49,902.474L354.598,902.48L354.585,900.769L393.494,900.481ZM402.84,926.936C403.667,924.722 405.024,922.865 406.91,921.363C408.796,919.861 410.644,919.103 412.454,919.09C414.091,919.078 415.384,919.577 416.334,920.586C417.284,921.596 417.763,922.634 417.771,923.7C417.776,924.42 417.539,925.041 417.059,925.566C416.579,926.09 415.992,926.355 415.298,926.36C414.058,926.369 413.109,925.459 412.451,923.628C411.995,922.392 411.321,921.777 410.428,921.783C409.362,921.791 408.09,922.526 406.613,923.988C405.136,925.449 404.192,926.963 403.782,928.528C403.372,930.094 403.177,932.24 403.197,934.968L403.237,940.399C403.261,943.648 403.32,945.693 403.413,946.536C403.506,947.378 403.864,948.02 404.487,948.462C405.111,948.904 406.216,949.119 407.803,949.107L408.845,949.099L408.857,950.811L392.676,950.93L392.664,949.219L393.445,949.213C394.933,949.202 395.991,948.99 396.621,948.576C397.25,948.162 397.624,947.583 397.742,946.838C397.861,946.093 397.907,943.96 397.881,940.439L397.817,931.846C397.793,928.573 397.735,926.521 397.642,925.691C397.549,924.861 397.191,924.218 396.567,923.764C395.944,923.31 394.839,923.089 393.252,923.101L392.47,923.106L392.458,921.433C394.787,921.143 397.832,920.388 401.592,919.17C402.326,921.124 402.742,923.712 402.84,926.936ZM586.086,942.06L587.723,942.048C586.079,947.838 581.885,950.758 575.139,950.808C570.8,950.84 567.137,949.392 564.152,946.463C561.167,943.534 559.656,939.639 559.62,934.778C559.583,929.794 561.153,925.74 564.329,922.617C567.505,919.493 571.275,917.915 575.64,917.883C578.269,917.864 580.691,918.422 582.906,919.559C585.122,920.696 586.236,922.095 586.248,923.756C586.253,924.376 586.052,924.961 585.647,925.509C585.242,926.058 584.655,926.335 583.886,926.341C582.25,926.353 581.238,925.405 580.852,923.499C580.544,922.063 580.078,921.062 579.454,920.496C578.805,919.93 577.55,919.654 575.69,919.668C572.367,919.693 569.877,920.864 568.221,923.183C566.564,925.502 565.752,928.98 565.787,933.617C565.822,938.403 566.749,942.141 568.567,944.831C570.385,947.52 573.116,948.852 576.762,948.825C581.672,948.788 584.78,946.533 586.086,942.06ZM430.16,918.959L430.317,940.199C430.341,943.447 430.406,945.493 430.511,946.335C430.617,947.178 430.981,947.82 431.605,948.262C432.228,948.703 433.333,948.918 434.92,948.907L435.701,948.901L435.714,950.612L419.31,950.733L419.297,949.022L420.562,949.013C422.322,949 423.468,948.737 423.997,948.225C424.526,947.712 424.832,947.103 424.913,946.395C424.995,945.688 425.023,943.635 424.998,940.238L424.93,931.013C424.903,927.442 424.72,925.261 424.379,924.47C424.039,923.679 423.589,923.186 423.029,922.992C422.47,922.798 421.496,922.706 420.107,922.716L419.103,922.723L419.09,921.012C423.501,920.533 426.918,919.851 429.342,918.965L430.16,918.959ZM522.691,926.049C523.518,923.836 524.874,921.978 526.76,920.476C528.646,918.975 530.494,918.217 532.305,918.203C533.941,918.191 535.235,918.69 536.185,919.7C537.134,920.71 537.613,921.748 537.621,922.814C537.627,923.533 537.389,924.155 536.91,924.679C536.43,925.204 535.843,925.468 535.148,925.474C533.909,925.483 532.959,924.572 532.301,922.742C531.846,921.505 531.171,920.89 530.279,920.897C529.212,920.905 527.941,921.64 526.463,923.101C524.986,924.563 524.043,926.076 523.633,927.642C523.223,929.207 523.028,931.354 523.048,934.082L523.088,939.513C523.112,942.761 523.171,944.807 523.264,945.649C523.357,946.492 523.715,947.134 524.338,947.576C524.961,948.017 526.067,948.232 527.654,948.221L528.695,948.213L528.708,949.924L512.527,950.044L512.514,948.333L513.295,948.327C514.783,948.316 515.842,948.104 516.471,947.69C517.101,947.276 517.474,946.696 517.593,945.952C517.711,945.207 517.758,943.074 517.732,939.552L517.668,930.96C517.644,927.686 517.585,925.634 517.492,924.804C517.399,923.974 517.041,923.332 516.418,922.878C515.795,922.424 514.689,922.203 513.102,922.214L512.321,922.22L512.309,920.546C514.638,920.256 517.683,919.502 521.443,918.284C522.177,920.238 522.593,922.826 522.691,926.049ZM550.011,918.073L550.168,939.312C550.192,942.561 550.257,944.606 550.362,945.449C550.467,946.291 550.832,946.933 551.455,947.375C552.078,947.817 553.184,948.032 554.771,948.02L555.552,948.014L555.564,949.726L539.16,949.847L539.148,948.136L540.412,948.126C542.173,948.113 543.318,947.851 543.848,947.338C544.377,946.826 544.682,946.216 544.764,945.509C544.846,944.801 544.874,942.749 544.849,939.352L544.78,930.127C544.754,926.556 544.57,924.375 544.23,923.584C543.889,922.793 543.439,922.3 542.88,922.106C542.32,921.911 541.346,921.819 539.957,921.83L538.953,921.837L538.94,920.126C543.351,919.647 546.769,918.964 549.192,918.079L550.011,918.073ZM600.943,923.945C602.416,921.851 604.072,920.277 605.912,919.221C607.751,918.166 609.775,917.631 611.982,917.614C614.487,917.596 616.567,918.101 618.224,919.13C619.881,920.16 620.963,921.435 621.47,922.957C621.977,924.478 622.244,926.95 622.269,930.372L622.331,938.779C622.358,942.35 622.442,944.519 622.584,945.287C622.726,946.054 623.133,946.616 623.805,946.97C624.478,947.325 625.719,947.495 627.529,947.482L627.542,949.193L611.807,949.31L611.795,947.598L612.501,947.593C614.312,947.58 615.481,947.311 616.011,946.786C616.54,946.261 616.845,945.645 616.927,944.938C617.009,944.231 617.037,942.191 617.012,938.818L616.944,929.667C616.926,927.138 616.763,925.267 616.456,924.054C616.15,922.841 615.442,921.842 614.332,921.056C613.223,920.271 611.838,919.884 610.176,919.897C608.242,919.911 606.51,920.488 604.981,921.628C603.452,922.767 602.113,924.47 600.964,926.735L601.054,938.936C601.079,942.358 601.151,944.466 601.268,945.258C601.386,946.051 601.768,946.65 602.416,947.054C603.064,947.458 604.243,947.654 605.954,947.642L605.967,949.353L590.493,949.467L590.48,947.756L591.261,947.75C593.047,947.737 594.204,947.474 594.734,946.962C595.263,946.45 595.569,945.84 595.65,945.132C595.732,944.425 595.76,942.373 595.735,938.975L595.51,908.622C595.488,905.547 595.182,903.603 594.593,902.789C594.004,901.975 592.606,901.576 590.399,901.592L590.387,899.881C594.23,899.852 597.426,899.308 599.972,898.248L600.753,898.242L600.943,923.945ZM498.913,925.072C497.266,923.671 495.615,922.623 493.961,921.928C492.307,921.233 490.649,920.892 488.987,920.905C486.185,920.925 483.856,922.021 481.999,924.193C480.143,926.364 479.233,929.892 479.269,934.778C479.306,939.737 480.294,943.388 482.233,945.729C484.172,948.071 486.556,949.231 489.383,949.211C491.267,949.197 493.012,948.737 494.617,947.833C496.223,946.928 497.701,945.578 499.051,943.782L498.913,925.072ZM821.304,927.598L800.064,927.755C799.975,929.219 799.934,930.31 799.939,931.03C799.979,936.386 800.845,940.403 802.539,943.082C804.233,945.76 806.741,947.087 810.064,947.062C814.578,947.029 817.762,944.984 819.617,940.928L821.402,940.915C820.627,943.45 819.067,945.439 816.722,946.883C814.377,948.326 811.815,949.058 809.038,949.078C806.459,949.098 804.017,948.465 801.714,947.18C799.411,945.895 797.518,944.067 796.038,941.697C794.557,939.328 793.804,936.444 793.779,933.047C793.743,928.236 795.127,924.227 797.931,921.019C800.734,917.812 804.256,916.192 808.497,916.161C812.489,916.131 815.586,917.324 817.786,919.738C819.986,922.152 821.159,924.772 821.304,927.598ZM691.591,933.021L693.377,933.008L692.414,948.713L650.641,949.022L650.629,947.311L651.67,947.304C654.175,947.285 655.791,946.938 656.517,946.263C657.244,945.588 657.702,944.736 657.893,943.705C658.084,942.674 658.164,940.051 658.133,935.835L657.95,911.099C657.921,907.255 657.797,904.727 657.577,903.513C657.358,902.3 656.868,901.454 656.108,900.976C655.348,900.498 653.753,900.268 651.323,900.286L651.31,898.575L687.354,898.308L688.638,910.872L686.889,910.885C686.07,907.37 685.078,904.878 683.914,903.411C682.75,901.944 681.373,901.025 679.783,900.652C678.193,900.279 675.637,900.106 672.116,900.132L665.123,900.184L665.279,921.349L670.636,921.31C673.091,921.291 674.807,921.068 675.783,920.639C676.759,920.21 677.399,919.567 677.703,918.709C678.007,917.851 678.149,916.182 678.131,913.703L679.879,913.69L680.007,930.949L678.259,930.962C678.238,928.16 677.989,926.283 677.51,925.332C677.032,924.381 676.339,923.766 675.432,923.487C674.525,923.209 672.993,923.078 670.835,923.094L665.293,923.135L665.381,935.075C665.425,941.051 665.835,944.564 666.612,945.612C667.389,946.66 669.463,947.172 672.836,947.147L676.593,947.119C679.246,947.1 681.426,946.742 683.132,946.048C684.838,945.353 686.458,943.94 687.992,941.808C689.526,939.677 690.726,936.748 691.591,933.021ZM845.713,948.547L845.639,938.541L847.089,938.53C848.818,944.295 851.853,947.162 856.192,947.13C858.077,947.116 859.48,946.535 860.402,945.388C861.323,944.24 861.779,942.984 861.769,941.621C861.757,940.033 861.252,938.735 860.252,937.726C859.228,936.717 857.247,935.504 854.31,934.087C851.224,932.597 849.006,931.125 847.656,929.672C846.306,928.244 845.624,926.476 845.608,924.368C845.593,922.359 846.298,920.438 847.723,918.605C849.148,916.772 851.162,915.845 853.766,915.826C856.42,915.806 858.622,916.869 860.374,919.013C860.743,918.639 861.22,917.73 861.805,916.287L863.181,916.277L863.251,925.688L861.874,925.698C861.362,923.445 860.386,921.512 858.948,919.898C857.51,918.284 855.824,917.485 853.89,917.499C852.402,917.51 851.203,917.978 850.292,918.902C849.381,919.826 848.93,920.896 848.939,922.111C848.949,923.45 849.466,924.6 850.49,925.559C851.489,926.544 853.395,927.658 856.206,928.902C860.436,930.78 863.029,932.621 863.985,934.425C864.941,936.253 865.425,938.01 865.437,939.696C865.457,942.35 864.599,944.514 862.863,946.188C861.127,947.862 858.932,948.709 856.279,948.729C853.476,948.75 850.976,947.615 848.776,945.325C848.112,946.074 847.575,947.144 847.163,948.536L845.713,948.547ZM706.092,916.918L707.096,916.911C707.678,918.444 708.016,920.537 708.11,923.19C709.88,921.069 711.74,919.48 713.692,918.424C715.643,917.368 717.685,916.832 719.818,916.817C722.248,916.799 724.242,917.292 725.799,918.298C727.357,919.303 728.364,920.542 728.821,922.014C729.279,923.486 729.518,925.636 729.539,928.463L729.609,937.985C729.635,941.507 729.713,943.651 729.843,944.419C729.972,945.187 730.367,945.761 731.027,946.14C731.687,946.52 732.897,946.703 734.658,946.69L734.671,948.401L719.085,948.516L719.072,946.805L719.779,946.8C721.565,946.787 722.728,946.518 723.27,945.993C723.812,945.468 724.117,944.858 724.186,944.163C724.256,943.468 724.278,941.422 724.253,938.025L724.18,928.205C724.162,925.799 724.032,924.083 723.788,923.055C723.545,922.028 722.906,921.121 721.871,920.335C720.836,919.549 719.525,919.162 717.938,919.174C716.128,919.188 714.402,919.74 712.761,920.831C711.12,921.922 709.576,923.551 708.128,925.719L708.22,938.143C708.246,941.665 708.33,943.809 708.473,944.577C708.615,945.345 709.016,945.918 709.676,946.298C710.336,946.677 711.558,946.861 713.344,946.847L713.357,948.558L697.957,948.672L697.944,946.961C699.655,946.949 700.844,946.766 701.511,946.414C702.178,946.062 702.59,945.532 702.746,944.824C702.902,944.116 702.966,941.902 702.938,938.182L702.871,929.106C702.845,925.56 702.761,923.409 702.619,922.654C702.477,921.899 702.076,921.331 701.416,920.952C700.756,920.572 699.533,920.389 697.748,920.402L697.735,918.691C700.461,918.373 703.246,917.782 706.092,916.918ZM784.063,896.886L784.364,937.58C784.388,940.829 784.446,942.874 784.539,943.717C784.632,944.559 784.991,945.202 785.614,945.643C786.237,946.085 787.342,946.3 788.929,946.288L789.822,946.282L789.835,947.993L773.542,948.113L773.53,946.402L774.571,946.395C776.059,946.384 777.118,946.171 777.747,945.757C778.376,945.343 778.75,944.764 778.869,944.019C778.987,943.274 779.033,941.141 779.007,937.62L778.784,907.49C778.761,904.291 778.461,902.278 777.884,901.452C777.308,900.625 775.916,900.22 773.709,900.236L773.696,898.525C775.209,898.514 776.987,898.327 779.03,897.965C781.074,897.603 782.478,897.245 783.244,896.892L784.063,896.886ZM835.656,896.505L835.957,937.199C835.981,940.447 836.039,942.493 836.132,943.335C836.225,944.178 836.584,944.82 837.207,945.262C837.83,945.704 838.935,945.919 840.522,945.907L841.415,945.9L841.428,947.611L825.135,947.732L825.123,946.021L826.164,946.013C827.652,946.002 828.711,945.79 829.34,945.376C829.969,944.962 830.343,944.383 830.462,943.638C830.58,942.893 830.626,940.76 830.6,937.238L830.378,907.108C830.354,903.909 830.054,901.897 829.477,901.07C828.901,900.243 827.509,899.838 825.302,899.855L825.289,898.144C826.802,898.132 828.58,897.946 830.623,897.583C832.667,897.221 834.071,896.863 834.837,896.511L835.656,896.505ZM745.536,928.642C745.559,931.841 746.234,934.179 747.559,935.658C748.884,937.136 750.564,937.867 752.597,937.852C754.482,937.838 756.095,937.089 757.435,935.603C758.776,934.118 759.433,931.552 759.406,927.907C759.379,924.237 758.641,921.713 757.192,920.335C755.744,918.957 754.114,918.274 752.304,918.288C750.022,918.304 748.318,919.173 747.19,920.892C746.061,922.612 745.51,925.195 745.536,928.642ZM460.922,928.775C460.993,928.204 461.026,927.696 461.023,927.249C461.007,925.067 460.356,923.379 459.07,922.186C457.784,920.993 456.211,920.403 454.351,920.417C449.837,920.45 447.168,923.272 446.341,928.883L460.922,928.775ZM814.783,926.158C814.853,925.587 814.887,925.079 814.883,924.632C814.867,922.45 814.216,920.762 812.93,919.569C811.644,918.376 810.071,917.786 808.211,917.8C803.698,917.833 801.028,920.655 800.202,926.266L814.783,926.158ZM422.866,903.463C422.858,902.397 423.23,901.477 423.98,900.702C424.731,899.928 425.639,899.537 426.706,899.529C427.772,899.521 428.68,899.899 429.43,900.662C430.179,901.425 430.558,902.34 430.566,903.406C430.574,904.498 430.209,905.43 429.471,906.205C428.732,906.979 427.83,907.37 426.764,907.378C425.697,907.386 424.783,907.008 424.021,906.245C423.259,905.482 422.874,904.555 422.866,903.463ZM542.717,902.577C542.709,901.511 543.08,900.59 543.831,899.816C544.581,899.042 545.49,898.651 546.556,898.643C547.623,898.635 548.531,899.012 549.28,899.776C550.03,900.539 550.409,901.454 550.417,902.52C550.425,903.611 550.06,904.544 549.321,905.318C548.583,906.092 547.681,906.483 546.614,906.491C545.548,906.499 544.634,906.122 543.872,905.358C543.11,904.595 542.725,903.668 542.717,902.577ZM538.407,868.088L539.783,868.077C539.591,872.32 537.524,874.455 533.581,874.484C531.895,874.497 530.558,874.06 529.572,873.175C528.586,872.289 527.938,870.967 527.627,869.209C525.16,870.988 522.907,872.331 520.868,873.239C518.829,874.147 517.003,874.607 515.391,874.619C513.333,874.634 511.556,874.052 510.059,872.873C508.562,871.694 507.807,870.124 507.792,868.165C507.773,865.611 509.003,863.37 511.481,861.442C513.959,859.514 517.386,857.629 521.762,855.786L527.51,853.4L527.499,851.912C527.484,849.804 527.336,848.28 527.056,847.34C526.777,846.4 526.064,845.562 524.917,844.826C523.771,844.091 522.268,843.73 520.408,843.743C516.688,843.771 514.627,845.026 514.224,847.509C513.846,850.042 512.813,851.314 511.127,851.326C509.614,851.338 508.853,850.624 508.842,849.186C508.832,847.772 509.825,846.246 511.821,844.607C513.818,842.968 516.937,842.132 521.177,842.101C524.327,842.078 526.773,842.556 528.516,843.535C530.259,844.514 531.415,845.634 531.982,846.894C532.549,848.155 532.843,850.087 532.862,852.691L532.953,865.003C532.974,867.88 533.137,869.726 533.44,870.542C533.744,871.359 534.392,871.763 535.384,871.756C537.02,871.743 538.028,870.521 538.407,868.088ZM461.861,849.459L477.158,835.47C480.706,832.245 482.474,829.95 482.464,828.586C482.449,826.528 480.655,825.462 477.084,825.39L477.071,823.679L496.079,823.538L496.092,825.249C494.53,825.285 492.964,825.632 491.394,826.288C489.824,826.945 488.385,827.798 487.079,828.85C485.772,829.901 483.346,832.114 479.8,835.488L470.674,844.037L489.712,862.979C494.059,867.337 496.968,869.969 498.438,870.876C499.908,871.782 501.808,872.227 504.139,872.21L504.152,873.921L477.965,874.115L477.952,872.404L478.957,872.396C481.784,872.375 483.542,872.127 484.233,871.65C484.924,871.174 485.267,870.589 485.262,869.894C485.254,868.853 483.439,866.547 479.817,862.978L465.464,848.725L461.879,851.914L461.947,861.102C461.977,865.069 462.095,867.666 462.302,868.892C462.51,870.118 463.019,871.026 463.829,871.615C464.639,872.204 466.185,872.491 468.467,872.474L469.434,872.467L469.447,874.178L446.793,874.345L446.781,872.634L448.343,872.623C450.5,872.607 451.992,872.323 452.819,871.771C453.646,871.219 454.173,870.366 454.4,869.211C454.627,868.056 454.725,865.371 454.694,861.155L454.511,836.419C454.48,832.253 454.33,829.6 454.061,828.461C453.792,827.323 453.272,826.558 452.5,826.167C451.729,825.776 449.929,825.59 447.102,825.611L447.09,823.9L469.408,823.735L469.421,825.446L468.491,825.453C466.011,825.472 464.388,825.688 463.623,826.103C462.857,826.518 462.348,827.284 462.096,828.402C461.844,829.52 461.733,832.174 461.764,836.365L461.861,849.459ZM553.113,849.639C553.94,847.426 555.296,845.569 557.182,844.067C559.068,842.565 560.917,841.807 562.727,841.794C564.364,841.782 565.657,842.28 566.607,843.29C567.557,844.3 568.035,845.338 568.043,846.404C568.049,847.123 567.811,847.745 567.332,848.27C566.852,848.794 566.265,849.059 565.571,849.064C564.331,849.073 563.382,848.162 562.723,846.332C562.268,845.095 561.594,844.48 560.701,844.487C559.635,844.495 558.363,845.23 556.886,846.691C555.408,848.153 554.465,849.667 554.055,851.232C553.645,852.798 553.45,854.944 553.47,857.672L553.51,863.103C553.534,866.351 553.593,868.397 553.686,869.239C553.779,870.082 554.137,870.724 554.76,871.166C555.383,871.608 556.489,871.823 558.076,871.811L559.117,871.803L559.13,873.514L542.949,873.634L542.936,871.923L543.717,871.917C545.205,871.906 546.264,871.694 546.893,871.28C547.523,870.866 547.897,870.287 548.015,869.542C548.134,868.797 548.18,866.664 548.154,863.142L548.09,854.55C548.066,851.276 548.007,849.225 547.914,848.395C547.822,847.564 547.463,846.922 546.84,846.468C546.217,846.014 545.111,845.793 543.524,845.804L542.743,845.81L542.731,844.136C545.06,843.846 548.105,843.092 551.865,841.874C552.599,843.828 553.015,846.416 553.113,849.639ZM578.169,822.224L578.47,862.918C578.494,866.167 578.552,868.212 578.645,869.055C578.738,869.897 579.097,870.54 579.72,870.981C580.343,871.423 581.448,871.638 583.035,871.626L583.928,871.62L583.941,873.331L567.648,873.451L567.636,871.74L568.677,871.733C570.165,871.722 571.224,871.509 571.853,871.095C572.482,870.681 572.856,870.102 572.975,869.357C573.093,868.612 573.139,866.479 573.113,862.958L572.89,832.828C572.867,829.629 572.567,827.616 571.99,826.79C571.414,825.963 570.022,825.558 567.815,825.574L567.802,823.863C569.315,823.852 571.093,823.665 573.136,823.303C575.18,822.941 576.584,822.583 577.35,822.23L578.169,822.224ZM708.325,866.831L709.702,866.821C709.51,871.063 707.442,873.199 703.499,873.228C701.813,873.24 700.477,872.804 699.491,871.918C698.505,871.033 697.856,869.711 697.546,867.952C695.079,869.731 692.826,871.075 690.787,871.983C688.747,872.891 686.922,873.35 685.31,873.362C683.252,873.378 681.474,872.795 679.977,871.616C678.481,870.437 677.725,868.868 677.711,866.909C677.692,864.354 678.921,862.113 681.399,860.185C683.878,858.257 687.305,856.372 691.681,854.529L697.429,852.143L697.418,850.655C697.402,848.548 697.255,847.023 696.975,846.083C696.695,845.143 695.982,844.305 694.836,843.569C693.69,842.834 692.187,842.473 690.327,842.487C686.607,842.514 684.545,843.769 684.142,846.252C683.764,848.785 682.732,850.057 681.046,850.07C679.533,850.081 678.771,849.367 678.761,847.929C678.75,846.516 679.743,844.989 681.74,843.35C683.737,841.711 686.855,840.876 691.096,840.844C694.245,840.821 696.691,841.299 698.435,842.278C700.178,843.257 701.333,844.377 701.9,845.638C702.468,846.898 702.761,848.83 702.78,851.434L702.871,863.747C702.893,866.623 703.055,868.47 703.359,869.286C703.662,870.102 704.31,870.506 705.302,870.499C706.939,870.487 707.947,869.264 708.325,866.831ZM639.45,864.216L657.516,822.344L672.991,822.23L673.003,823.941L671.143,823.954C668.664,823.973 667.041,824.189 666.275,824.604C665.509,825.019 665,825.785 664.748,826.903C664.496,828.021 664.386,830.676 664.417,834.866L664.6,859.603C664.629,863.571 664.747,866.167 664.955,867.394C665.162,868.62 665.671,869.527 666.481,870.116C667.292,870.706 668.838,870.992 671.119,870.975L673.351,870.958L673.364,872.669L649.26,872.848L649.247,871.137L651.032,871.123C653.165,871.108 654.645,870.824 655.472,870.272C656.298,869.721 656.825,868.867 657.052,867.712C657.279,866.558 657.377,863.872 657.346,859.656L657.109,827.555L637.468,872.935L635.72,872.948L615.261,827.864L615.48,857.399C615.51,861.441 615.654,864.193 615.913,865.654C616.172,867.116 616.95,868.393 618.248,869.487C619.545,870.581 621.36,871.194 623.692,871.326L623.705,873.037L605.664,873.17L605.651,871.459C607.808,871.319 609.558,870.717 610.902,869.653C612.246,868.589 613.061,867.288 613.347,865.748C613.633,864.208 613.761,861.355 613.73,857.189L613.568,835.243C613.538,831.225 613.401,828.635 613.157,827.471C612.912,826.307 612.411,825.505 611.651,825.064C610.891,824.623 609.234,824.412 606.68,824.431L605.304,824.441L605.291,822.73L620.654,822.617L639.45,864.216ZM723.032,848.383C723.858,846.17 725.215,844.312 727.101,842.81C728.987,841.308 730.835,840.55 732.645,840.537C734.282,840.525 735.575,841.024 736.525,842.033C737.475,843.043 737.954,844.081 737.962,845.148C737.967,845.867 737.73,846.489 737.25,847.013C736.771,847.537 736.183,847.802 735.489,847.807C734.249,847.816 733.3,846.906 732.642,845.075C732.186,843.839 731.512,843.224 730.619,843.23C729.553,843.238 728.281,843.973 726.804,845.435C725.327,846.896 724.383,848.41 723.973,849.975C723.563,851.541 723.368,853.687 723.389,856.415L723.429,861.846C723.453,865.095 723.511,867.14 723.604,867.983C723.697,868.825 724.055,869.467 724.679,869.909C725.302,870.351 726.407,870.566 727.994,870.554L729.036,870.547L729.048,872.258L712.868,872.377L712.855,870.666L713.636,870.66C715.124,870.649 716.183,870.437 716.812,870.023C717.441,869.609 717.815,869.03 717.934,868.285C718.052,867.54 718.098,865.407 718.072,861.886L718.009,853.293C717.984,850.02 717.926,847.968 717.833,847.138C717.74,846.308 717.382,845.666 716.759,845.211C716.135,844.757 715.03,844.536 713.443,844.548L712.662,844.554L712.649,842.88C714.978,842.59 718.023,841.836 721.784,840.617C722.517,842.571 722.933,845.16 723.032,848.383ZM758.604,854.741L767.239,865.428C768.741,867.277 769.984,868.526 770.968,869.176C771.953,869.826 773.127,870.171 774.491,870.21L774.504,871.921L759.29,872.034L759.277,870.323C761.782,870.304 763.031,869.812 763.024,868.844C763.021,868.448 762.444,867.596 761.294,866.29L755.212,858.858L749.682,865.521C748.329,867.118 747.655,868.115 747.658,868.512C747.667,869.752 749.048,870.374 751.801,870.378L751.813,872.089L739.278,872.182L739.265,870.471C740.356,870.463 741.557,870.169 742.867,869.589C744.177,869.009 745.865,867.483 747.929,865.013L754.161,857.527L747.365,849.058C745.438,846.642 743.975,845.097 742.978,844.422C741.981,843.748 740.813,843.415 739.474,843.425L739.462,841.714L753.82,841.608L753.833,843.319C751.774,843.334 750.749,843.801 750.755,844.718C750.758,845.14 751.223,845.893 752.148,846.977L757.554,853.559L762.458,847.719C763.564,846.372 764.116,845.537 764.114,845.215C764.104,843.9 762.735,843.253 760.007,843.273L759.995,841.562L772.084,841.473L772.097,843.184C769.667,843.276 767.161,844.82 764.579,847.815L758.604,854.741ZM527.523,855.148L523.481,856.815C517.102,859.466 513.927,862.763 513.956,866.706C513.968,868.268 514.387,869.524 515.212,870.473C516.037,871.421 517.107,871.891 518.421,871.881C519.587,871.872 520.936,871.478 522.468,870.698C523.999,869.918 525.714,868.752 527.612,867.2L527.523,855.148ZM697.442,853.892L693.399,855.558C687.021,858.209 683.846,861.506 683.875,865.449C683.887,867.012 684.305,868.267 685.13,869.216C685.956,870.165 687.026,870.634 688.34,870.624C689.506,870.616 690.854,870.221 692.386,869.441C693.918,868.661 695.633,867.495 697.531,865.944L697.442,853.892Z" style="fill:rgb(230,220,29);fill-rule:nonzero;"/>
            </g>
            <g transform="matrix(0.227656,-0.0418487,0.0418487,0.227656,503.297,757.393)">
                <path d="M1682.23,1930.91L1660.66,1903.49C1652.4,1893.69 1637.74,1892.45 1627.95,1900.71C1618.16,1908.97 1616.91,1923.63 1625.17,1933.42L1646.5,1958.71C1641.52,1962.84 1636.96,1966.8 1633.23,1970.32C1610.74,1991.53 1582.18,1994.04 1566.98,2010.7C1537.38,2043.14 1545.74,2069.97 1545.69,2070.02C1543.77,2072.13 1544.42,2079.44 1549.32,2084.1C1553.6,2088.15 1564.58,2086.36 1564.58,2086.36C1564.58,2086.36 1589.21,2093.94 1617.47,2066.78C1645.72,2039.63 1641.69,2019.9 1655.48,2004.23C1662.15,1996.64 1667.23,1991.71 1671.43,1988.26L1693.18,2014.05C1701.44,2023.85 1716.1,2025.09 1725.89,2016.83C1735.69,2008.57 1735.56,1994.46 1727.3,1984.67L1703.79,1958.72C1704.06,1957.99 1707.86,1955.43 1707.86,1955.43C1707.86,1955.43 1804.48,2073.76 1947.23,2001.26C1979.62,2036.83 2022.65,2080.61 2022.65,2080.61C2022.65,2080.61 2048.46,2098.18 2070.64,2076.8C2093.22,2055.05 2073.55,2028.94 2073.55,2028.94L1999.3,1956.62C1999.3,1956.62 2102.53,1818.82 1974.47,1658.38C1916.25,1585.44 1875.94,1573.79 1814.45,1550.87C1912.35,1605.13 2033.36,1769.14 1937.34,1900.58C1924.44,1892.64 1764.52,1735.27 1764.52,1735.27L1849.38,1651.74L1730.48,1635.9L1597.8,1766.19L1664.68,1833.42L1728.49,1770.63L1886.81,1937.58C1886.81,1937.58 1796.23,1987.05 1716.83,1903.9C1706.29,1913.11 1701.63,1916.76 1701.63,1916.76C1701.63,1916.76 1692.89,1923 1682.23,1930.91Z" style="fill:rgb(230,220,29);"/>
            </g>
        </g>
    </g>
</svg>
