<?xml version="1.0" encoding="UTF-8" standalone="no"?>
<!DOCTYPE svg PUBLIC "-//W3C//DTD SVG 1.1//EN" "http://www.w3.org/Graphics/SVG/1.1/DTD/svg11.dtd">
<svg width="100%" height="100%" viewBox="0 0 1200 1200" version="1.1" xmlns="http://www.w3.org/2000/svg" xmlns:xlink="http://www.w3.org/1999/xlink" xml:space="preserve" xmlns:serif="http://www.serif.com/" style="fill-rule:evenodd;clip-rule:evenodd;stroke-linecap:round;stroke-linejoin:round;stroke-miterlimit:1.5;">
    <rect id="Artboard1" x="0" y="0" width="1200" height="1200" style="fill:none;"/>
    <g id="Artboard11" serif:id="Artboard1">
        <g transform="matrix(3.75535,0.690325,-0.690325,3.75535,-2375.34,-4200.39)">
            <g transform="matrix(0.560103,0.139507,-0.139507,0.560103,735.02,676.226)">
                <path d="M374.747,500.039L397.285,454.693L653.196,341.941L700.432,394.109L757.202,531.202L847.903,697.22L828.832,736.396L675.056,793.136L572.228,845.399L527.331,832.759L487.892,739.562L423.347,590.266L374.747,500.039Z" style="stroke:black;stroke-width:0.45px;"/>
            </g>
            <g transform="matrix(0.981646,-0.190712,0.190712,0.981646,-201.68,166.299)">
                <path d="M1075.3,1028.04L908.676,1028.04L908.676,1241.6L912.848,1247.13L1075.3,1241.6L1075.3,1028.04Z" style="fill:rgb(0,21,32);"/>
            </g>
            <g transform="matrix(0.981646,-0.190712,0.190712,0.981646,-196.632,168.614)">
                <path d="M1072.78,1027.55L906.827,1028.04L908.676,1030.33L908.676,1241.6L1072.33,1241.41L1072.78,1027.55Z" style="fill:white;"/>
            </g>
            <g transform="matrix(0.981646,-0.190712,0.190712,0.981646,-196.632,170.93)">
                <rect x="908.676" y="1028.04" width="166.624" height="213.565" style="fill:rgb(0,46,69);"/>
            </g>
            <g transform="matrix(0.257583,-0.04735,0.04735,0.257583,810.734,969.476)">
                <path d="M431.16,676.634C429.81,673.849 427.87,671.699 425.339,670.182C422.807,668.666 419.869,667.92 416.525,667.945C413.18,667.97 410.173,668.76 407.504,670.314C404.835,671.869 402.744,674.084 401.23,676.959C399.716,679.834 398.973,683.15 399.001,686.907C399.029,690.664 399.821,693.957 401.377,696.787C402.933,699.616 405.056,701.788 407.748,703.303C410.44,704.818 413.458,705.564 416.803,705.539C421.476,705.504 425.315,704.078 428.318,701.261C431.321,698.444 433.057,694.651 433.526,689.882L414.42,690.023L414.382,684.937L440.155,684.747L440.19,689.558C439.853,693.501 438.643,697.118 436.559,700.41C434.476,703.701 431.723,706.31 428.301,708.237C424.878,710.164 421.06,711.143 416.844,711.174C412.4,711.207 408.337,710.195 404.657,708.137C400.976,706.08 398.056,703.203 395.898,699.508C393.74,695.812 392.644,691.628 392.61,686.954C392.575,682.281 393.609,678.069 395.712,674.319C397.815,670.569 400.691,667.638 404.341,665.527C407.991,663.415 412.039,662.342 416.483,662.309C421.569,662.272 426.08,663.499 430.016,665.99C433.952,668.481 436.83,672.01 438.651,676.579L431.16,676.634ZM481.716,672.618L481.995,710.28L475.74,710.326L475.699,704.76C474.522,706.693 472.872,708.206 470.75,709.298C468.627,710.39 466.283,710.946 463.717,710.965C460.785,710.987 458.146,710.399 455.8,709.202C453.454,708.005 451.597,706.198 450.227,703.779C448.858,701.361 448.16,698.411 448.134,694.929L447.971,672.867L454.156,672.822L454.314,694.058C454.341,697.769 455.301,700.615 457.195,702.594C459.088,704.573 461.661,705.551 464.914,705.527C468.259,705.502 470.886,704.451 472.795,702.375C474.704,700.299 475.644,697.291 475.615,693.351L475.462,672.664L481.716,672.618ZM532.025,690.94C531.997,687.092 532.75,683.707 534.287,680.786C535.823,677.865 537.948,675.593 540.663,673.969C543.377,672.345 546.406,671.521 549.751,671.496C553.05,671.472 555.919,672.161 558.358,673.563C560.797,674.965 562.62,676.739 563.827,678.884L563.776,672.011L570.099,671.964L570.377,709.626L564.055,709.673L564.003,702.663C562.782,704.872 560.951,706.706 558.511,708.168C556.07,709.629 553.223,710.372 549.97,710.396C546.625,710.421 543.595,709.618 540.88,707.989C538.164,706.359 536.017,704.061 534.437,701.095C532.857,698.128 532.053,694.743 532.025,690.94ZM498.554,672.493L498.833,710.156L492.579,710.202L492.3,672.539L498.554,672.493ZM516.874,677.513L517.038,699.711C517.051,701.544 517.45,702.836 518.235,703.586C519.019,704.336 520.374,704.704 522.298,704.69L526.903,704.656L526.942,709.948L521.306,709.989C517.824,710.015 515.207,709.233 513.454,707.642C511.701,706.051 510.811,703.423 510.784,699.758L510.619,677.559L505.74,677.595L505.702,672.44L510.581,672.404L510.511,662.92L516.765,662.874L516.835,672.358L526.663,672.285L526.702,677.44L516.874,677.513ZM586.982,677.956C588.066,675.795 589.623,674.111 591.653,672.904C593.683,671.698 596.164,671.084 599.097,671.062L599.144,677.523L597.495,677.535C590.485,677.587 587.008,681.416 587.064,689.021L587.216,709.502L580.961,709.548L580.683,671.886L586.937,671.84L586.982,677.956ZM664.599,689.96C664.571,686.111 665.325,682.726 666.861,679.805C668.397,676.884 670.523,674.612 673.237,672.988C675.951,671.365 678.981,670.54 682.326,670.516C685.624,670.491 688.493,671.18 690.932,672.583C693.371,673.985 695.194,675.758 696.401,677.903L696.35,671.03L702.673,670.984L702.952,708.646L696.629,708.693L696.577,701.683C695.356,703.891 693.526,705.726 691.085,707.187C688.644,708.649 685.798,709.391 682.544,709.415C679.2,709.44 676.17,708.638 673.454,707.008C670.739,705.379 668.591,703.081 667.011,700.114C665.431,697.148 664.627,693.763 664.599,689.96ZM648.75,684.373C650.493,684.635 652.09,685.333 653.542,686.468C654.994,687.603 656.15,689.014 657.01,690.703C657.87,692.392 658.307,694.199 658.322,696.123C658.34,698.552 657.737,700.744 656.515,702.701C655.292,704.657 653.505,706.205 651.154,707.345C648.802,708.485 646.023,709.067 642.816,709.091L624.947,709.223L624.592,661.32L641.774,661.193C645.027,661.169 647.803,661.687 650.102,662.747C652.401,663.806 654.13,665.248 655.289,667.073C656.448,668.897 657.036,670.955 657.053,673.245C657.074,676.086 656.324,678.44 654.803,680.307C653.281,682.174 651.264,683.529 648.75,684.373ZM726.873,709.088C723.987,709.109 721.395,708.636 719.096,707.667C716.798,706.699 714.978,705.338 713.636,703.584C712.295,701.83 711.547,699.808 711.392,697.518L717.852,697.47C718.05,699.347 718.943,700.876 720.533,702.055C722.122,703.235 724.2,703.815 726.766,703.796C729.148,703.779 731.023,703.238 732.389,702.174C733.756,701.11 734.434,699.776 734.422,698.172C734.41,696.523 733.667,695.303 732.195,694.512C730.723,693.721 728.449,692.947 725.374,692.191C722.574,691.479 720.289,690.751 718.519,690.008C716.749,689.265 715.229,688.154 713.958,686.674C712.687,685.194 712.043,683.24 712.025,680.812C712.01,678.887 712.57,677.119 713.704,675.507C714.837,673.895 716.454,672.611 718.555,671.657C720.656,670.702 723.058,670.214 725.761,670.194C729.93,670.163 733.306,671.192 735.887,673.281C738.469,675.37 739.865,678.246 740.075,681.91L733.821,681.956C733.669,679.987 732.867,678.412 731.415,677.232C729.963,676.051 728.022,675.47 725.594,675.488C723.349,675.504 721.566,675.999 720.244,676.971C718.922,677.943 718.267,679.208 718.279,680.765C718.288,682.002 718.696,683.019 719.504,683.815C720.312,684.611 721.325,685.245 722.542,685.717C723.76,686.189 725.448,686.715 727.606,687.295C730.314,688.008 732.519,688.713 734.22,689.411C735.92,690.108 737.383,691.163 738.607,692.574C739.832,693.986 740.476,695.837 740.538,698.127C740.554,700.189 739.995,702.049 738.861,703.707C737.728,705.365 736.123,706.671 734.045,707.626C731.967,708.58 729.577,709.068 726.873,709.088ZM763.842,689.295C763.813,685.4 764.567,681.992 766.103,679.071C767.639,676.15 769.787,673.878 772.547,672.254C775.308,670.63 778.475,669.804 782.048,669.778C786.676,669.744 790.499,670.838 793.516,673.061C796.534,675.284 798.539,678.385 799.53,682.364L792.795,682.414C792.137,680.128 790.875,678.327 789.009,677.012C787.144,675.697 784.837,675.05 782.088,675.07C778.514,675.096 775.636,676.343 773.455,678.811C771.274,681.278 770.2,684.757 770.233,689.247C770.267,693.783 771.392,697.28 773.61,699.738C775.827,702.196 778.723,703.412 782.297,703.385C785.046,703.365 787.332,702.707 789.155,701.41C790.979,700.114 792.225,698.272 792.895,695.884L799.63,695.834C798.65,699.691 796.657,702.787 793.65,705.123C790.643,707.459 786.872,708.644 782.336,708.677C778.762,708.704 775.583,707.926 772.8,706.342C770.016,704.759 767.834,702.507 766.255,699.586C764.675,696.666 763.871,693.235 763.842,689.295ZM821.373,708.389C818.486,708.41 815.894,707.937 813.596,706.969C811.298,706 809.478,704.639 808.136,702.885C806.794,701.131 806.046,699.109 805.892,696.819L812.352,696.771C812.549,698.648 813.443,700.177 815.032,701.356C816.622,702.536 818.699,703.116 821.265,703.097C823.648,703.08 825.522,702.539 826.889,701.475C828.256,700.411 828.933,699.077 828.921,697.473C828.909,695.824 828.167,694.604 826.695,693.813C825.223,693.022 822.949,692.248 819.873,691.492C817.073,690.78 814.788,690.052 813.019,689.309C811.249,688.566 809.729,687.455 808.458,685.975C807.187,684.495 806.542,682.541 806.524,680.113C806.51,678.188 807.07,676.42 808.203,674.808C809.337,673.196 810.954,671.912 813.055,670.958C815.155,670.003 817.557,669.515 820.261,669.495C824.43,669.465 827.805,670.493 830.387,672.582C832.968,674.671 834.364,677.547 834.575,681.211L828.32,681.257C828.168,679.288 827.366,677.713 825.914,676.533C824.462,675.352 822.522,674.771 820.094,674.789C817.848,674.805 816.065,675.3 814.744,676.272C813.422,677.244 812.767,678.509 812.778,680.067C812.788,681.304 813.196,682.32 814.004,683.116C814.811,683.912 815.824,684.546 817.042,685.018C818.26,685.49 819.947,686.016 822.105,686.596C824.814,687.309 827.019,688.014 828.719,688.712C830.42,689.409 831.882,690.464 833.107,691.875C834.332,693.287 834.975,695.138 835.038,697.428C835.053,699.49 834.494,701.35 833.361,703.008C832.228,704.666 830.622,705.972 828.545,706.927C826.467,707.881 824.076,708.369 821.373,708.389ZM755.387,670.594L755.665,708.256L749.411,708.302L749.133,670.64L755.387,670.594ZM563.915,690.773C563.894,687.933 563.303,685.463 562.142,683.364C560.981,681.264 559.422,679.661 557.467,678.553C555.511,677.444 553.365,676.899 551.028,676.916C548.692,676.934 546.565,677.499 544.649,678.613C542.733,679.727 541.21,681.342 540.08,683.458C538.95,685.574 538.396,688.052 538.417,690.893C538.438,693.78 539.029,696.284 540.19,698.406C541.352,700.528 542.899,702.143 544.831,703.252C546.764,704.36 548.899,704.905 551.235,704.888C553.572,704.871 555.71,704.294 557.649,703.157C559.588,702.02 561.122,700.382 562.252,698.243C563.381,696.104 563.936,693.614 563.915,690.773ZM642.228,703.94C645.343,703.917 647.766,703.166 649.497,701.687C651.227,700.208 652.082,698.163 652.063,695.551C652.043,692.894 651.111,690.804 649.267,689.283C647.423,687.762 644.966,687.012 641.897,687.035L631.038,687.115L631.163,704.022L642.228,703.94ZM696.489,689.793C696.468,686.952 695.877,684.482 694.716,682.383C693.555,680.284 691.997,678.68 690.041,677.572C688.086,676.464 685.939,675.919 683.603,675.936C681.266,675.953 679.14,676.519 677.223,677.633C675.307,678.746 673.784,680.361 672.654,682.477C671.524,684.594 670.97,687.072 670.991,689.913C671.012,692.799 671.604,695.304 672.765,697.426C673.926,699.548 675.473,701.163 677.406,702.271C679.338,703.379 681.473,703.925 683.81,703.908C686.146,703.89 688.284,703.313 690.223,702.176C692.162,701.039 693.696,699.401 694.826,697.262C695.956,695.123 696.51,692.634 696.489,689.793ZM631,681.961L641.515,681.883C644.447,681.861 646.71,681.157 648.304,679.771C649.897,678.384 650.685,676.477 650.667,674.049C650.649,671.62 649.833,669.725 648.219,668.362C646.605,666.999 644.286,666.329 641.262,666.352L630.885,666.428L631,681.961ZM495.485,666.399C494.294,666.408 493.283,666.003 492.452,665.184C491.621,664.366 491.201,663.361 491.192,662.169C491.183,660.978 491.588,659.967 492.407,659.136C493.226,658.305 494.231,657.886 495.422,657.877C496.567,657.868 497.544,658.273 498.352,659.092C499.16,659.911 499.568,660.916 499.577,662.107C499.586,663.299 499.192,664.31 498.397,665.14C497.601,665.971 496.63,666.39 495.485,666.399ZM752.318,664.499C751.126,664.508 750.115,664.103 749.285,663.285C748.454,662.466 748.034,661.461 748.025,660.27C748.016,659.079 748.421,658.068 749.24,657.237C750.058,656.406 751.063,655.986 752.255,655.977C753.4,655.969 754.377,656.374 755.185,657.193C755.993,658.012 756.401,659.017 756.41,660.208C756.419,661.399 756.025,662.41 755.229,663.241C754.434,664.071 753.463,664.491 752.318,664.499ZM508.723,623.978C508.707,621.814 509.125,619.921 509.979,618.299C510.832,616.676 512.026,615.413 513.559,614.511C515.093,613.609 516.852,613.15 518.837,613.135C521.408,613.116 523.532,613.724 525.209,614.959C526.885,616.194 527.999,617.917 528.55,620.128L524.808,620.155C524.442,618.885 523.741,617.885 522.705,617.154C521.668,616.424 520.386,616.064 518.859,616.075C516.874,616.09 515.275,616.783 514.063,618.154C512.852,619.525 512.255,621.457 512.273,623.952C512.292,626.472 512.917,628.415 514.149,629.78C515.381,631.146 516.99,631.821 518.976,631.806C520.503,631.795 521.773,631.429 522.786,630.709C523.799,629.989 524.491,628.965 524.863,627.639L528.605,627.611C528.061,629.754 526.953,631.474 525.283,632.772C523.612,634.069 521.517,634.728 518.997,634.746C517.012,634.761 515.246,634.329 513.699,633.449C512.153,632.57 510.941,631.318 510.063,629.696C509.186,628.073 508.739,626.167 508.723,623.978ZM500.051,628.624L488.444,628.71L486.349,634.644L482.684,634.671L492.11,608.14L496.119,608.111L505.898,634.5L502.233,634.527L500.051,628.624ZM542.403,634.573C540.443,634.588 538.664,634.155 537.066,633.276C535.469,632.397 534.212,631.14 533.297,629.505C532.381,627.87 531.915,625.97 531.899,623.807C531.883,621.669 532.334,619.775 533.251,618.126C534.167,616.478 535.425,615.208 537.022,614.318C538.619,613.428 540.41,612.976 542.396,612.961C544.381,612.947 546.179,613.372 547.789,614.239C549.399,615.105 550.675,616.349 551.616,617.972C552.557,619.594 553.035,621.487 553.051,623.65C553.067,625.814 552.604,627.72 551.662,629.369C550.719,631.018 549.437,632.294 547.815,633.197C546.192,634.1 544.388,634.559 542.403,634.573ZM561.056,616.565C561.658,615.364 562.523,614.429 563.651,613.759C564.779,613.088 566.157,612.747 567.786,612.735L567.813,616.324L566.896,616.331C563.002,616.36 561.07,618.487 561.101,622.713L561.185,634.091L557.711,634.116L557.556,613.193L561.031,613.167L561.056,616.565ZM581.99,612.63C584.535,612.611 586.603,613.366 588.192,614.894C589.782,616.423 590.587,618.638 590.609,621.54L590.7,633.872L587.264,633.898L587.176,622.061C587.161,619.974 586.627,618.381 585.575,617.281C584.523,616.182 583.094,615.639 581.286,615.652C579.454,615.666 578.001,616.249 576.927,617.402C575.854,618.556 575.325,620.227 575.342,622.416L575.427,633.985L571.953,634.011L571.798,613.087L575.272,613.062L575.295,616.04C575.974,614.966 576.903,614.132 578.083,613.537C579.262,612.943 580.564,612.641 581.99,612.63ZM645.641,612.541L645.796,633.465L642.322,633.491L642.299,630.398C641.645,631.472 640.728,632.312 639.549,632.919C638.37,633.526 637.067,633.835 635.642,633.845C634.013,633.857 632.547,633.531 631.244,632.866C629.94,632.201 628.908,631.197 628.148,629.853C627.387,628.51 626.999,626.871 626.985,624.936L626.894,612.68L630.33,612.655L630.418,624.453C630.433,626.515 630.966,628.095 632.018,629.195C633.07,630.294 634.5,630.837 636.307,630.824C638.165,630.81 639.624,630.227 640.685,629.073C641.746,627.92 642.268,626.249 642.252,624.06L642.167,612.567L645.641,612.541ZM622.767,607.021L622.787,609.847L615.533,609.9L615.709,633.687L612.234,633.713L612.058,609.926L604.766,609.98L604.745,607.154L622.767,607.021ZM674.702,633.595C672.742,633.609 670.963,633.177 669.366,632.298C667.768,631.419 666.512,630.162 665.596,628.526C664.68,626.891 664.214,624.992 664.198,622.828C664.182,620.69 664.633,618.797 665.55,617.148C666.467,615.499 667.724,614.23 669.321,613.34C670.918,612.45 672.71,611.997 674.695,611.983C676.68,611.968 678.478,612.394 680.088,613.26C681.698,614.127 682.974,615.371 683.915,616.993C684.856,618.615 685.335,620.508 685.351,622.672C685.367,624.835 684.904,626.742 683.961,628.391C683.019,630.039 681.737,631.315 680.114,632.218C678.492,633.121 676.688,633.58 674.702,633.595ZM655.781,615.33L655.872,627.663C655.879,628.681 656.101,629.398 656.537,629.815C656.973,630.232 657.725,630.437 658.794,630.429L661.352,630.41L661.374,633.35L658.243,633.373C656.309,633.387 654.855,632.952 653.881,632.069C652.907,631.185 652.412,629.725 652.397,627.688L652.306,615.356L649.595,615.376L649.574,612.512L652.285,612.492L652.246,607.223L655.72,607.197L655.759,612.466L661.219,612.426L661.241,615.29L655.781,615.33ZM712.269,622.435C712.253,620.296 712.672,618.416 713.525,616.793C714.379,615.17 715.559,613.908 717.067,613.006C718.575,612.104 720.258,611.646 722.117,611.632C723.949,611.619 725.543,612.001 726.898,612.78C728.253,613.56 729.266,614.545 729.936,615.736L729.908,611.918L733.421,611.892L733.576,632.816L730.063,632.842L730.034,628.947C729.356,630.174 728.339,631.193 726.983,632.005C725.627,632.817 724.046,633.23 722.238,633.243C720.38,633.257 718.697,632.811 717.188,631.906C715.68,631.001 714.486,629.724 713.609,628.076C712.731,626.428 712.284,624.547 712.269,622.435ZM693.355,615.587C693.957,614.386 694.822,613.45 695.95,612.78C697.078,612.11 698.456,611.769 700.086,611.757L700.112,615.346L699.196,615.353C695.301,615.381 693.37,617.509 693.401,621.734L693.485,633.112L690.01,633.138L689.856,612.214L693.33,612.189L693.355,615.587ZM707.572,612.083L707.727,633.007L704.252,633.033L704.097,612.109L707.572,612.083ZM742.721,604.492L742.93,632.746L739.456,632.772L739.247,604.518L742.721,604.492ZM542.38,631.519C543.627,631.509 544.796,631.208 545.886,630.615C546.976,630.021 547.855,629.136 548.52,627.96C549.186,626.784 549.513,625.357 549.501,623.677C549.488,621.997 549.147,620.574 548.476,619.408C547.806,618.242 546.934,617.376 545.861,616.811C544.787,616.246 543.627,615.969 542.38,615.978C541.107,615.987 539.945,616.282 538.892,616.863C537.84,617.443 537,618.321 536.373,619.497C535.745,620.673 535.437,622.1 535.45,623.78C535.462,625.486 535.785,626.922 536.417,628.088C537.049,629.254 537.889,630.12 538.937,630.685C539.985,631.25 541.133,631.528 542.38,631.519ZM674.68,630.54C675.927,630.531 677.096,630.23 678.186,629.636C679.276,629.043 680.154,628.158 680.82,626.982C681.486,625.806 681.812,624.378 681.8,622.698C681.788,621.018 681.446,619.595 680.776,618.429C680.105,617.263 679.233,616.398 678.16,615.833C677.087,615.268 675.926,614.99 674.679,614.999C673.406,615.009 672.244,615.304 671.192,615.884C670.14,616.465 669.3,617.343 668.672,618.519C668.044,619.694 667.737,621.122 667.749,622.802C667.762,624.507 668.084,625.943 668.717,627.11C669.349,628.276 670.189,629.142 671.237,629.707C672.285,630.272 673.432,630.549 674.68,630.54ZM729.985,622.342C729.974,620.764 729.645,619.391 729,618.225C728.355,617.059 727.49,616.168 726.403,615.552C725.317,614.937 724.124,614.634 722.826,614.643C721.528,614.653 720.347,614.967 719.282,615.586C718.218,616.205 717.371,617.102 716.744,618.278C716.116,619.453 715.808,620.83 715.82,622.408C715.831,624.012 716.16,625.403 716.805,626.582C717.45,627.761 718.31,628.658 719.383,629.274C720.457,629.89 721.643,630.193 722.941,630.183C724.239,630.174 725.427,629.853 726.504,629.221C727.581,628.59 728.434,627.68 729.061,626.491C729.689,625.303 729.997,623.92 729.985,622.342ZM499.037,625.806L494.127,612.402L489.416,625.877L499.037,625.806ZM705.867,608.698C705.205,608.702 704.643,608.477 704.182,608.023C703.72,607.568 703.487,607.01 703.482,606.348C703.477,605.686 703.702,605.124 704.157,604.663C704.612,604.201 705.17,603.968 705.832,603.963C706.468,603.958 707.011,604.183 707.46,604.638C707.908,605.093 708.135,605.652 708.14,606.313C708.145,606.975 707.927,607.537 707.484,607.998C707.042,608.46 706.503,608.693 705.867,608.698Z" style="fill:white;fill-rule:nonzero;"/>
            </g>
            <g transform="matrix(0.384662,0.15229,-0.15229,0.384662,887.162,712.203)">
                <path d="M574.294,596.663L573.381,596.663C569.058,596.663 565.548,593.153 565.548,588.83L565.548,564.927C565.548,560.604 569.058,557.094 573.381,557.094L589.047,557.094C593.37,557.094 596.88,560.604 596.88,564.927L596.88,588.83C596.88,593.153 593.37,596.663 589.047,596.663L588.134,596.663L588.134,618.078C604.423,620.738 616.722,632.605 616.722,646.824C616.722,651.291 612.365,657.788 613.362,661.985C614.938,668.619 626.177,676.001 626.177,686.63C626.177,708.184 606.03,725.684 581.214,725.684C556.398,725.684 536.25,708.184 536.25,686.63C536.25,676.001 547.538,668.619 549.114,661.985C550.111,657.788 545.706,651.291 545.706,646.824C545.706,632.605 558.005,620.738 574.294,618.078L574.294,596.663ZM581.214,650.708C588.955,650.708 595.24,656.993 595.24,664.734C595.24,672.475 588.955,678.76 581.214,678.76C573.473,678.76 567.188,672.475 567.188,664.734C567.188,656.993 573.473,650.708 581.214,650.708Z" style="fill:white;fill-opacity:0.47;"/>
            </g>
            <g transform="matrix(0.0637163,-0.0383708,0.039383,0.0637884,897.671,1019.01)">
                <path d="M400.455,281.192C406.563,296.328 408.886,306.178 405.19,306.927C392.09,309.58 379.466,334.729 373.433,348.579L394.568,841.855C394.503,842.402 394.403,842.907 394.269,843.375C401.192,848.657 408.528,852.535 416.237,854.442C446.521,861.932 490.222,834.121 493.989,790.385C495.102,777.467 497.575,733.763 511.768,740.959C547.792,759.223 539.764,821.286 526.749,857.417C513.734,893.548 482.616,938.863 511.18,982.512C539.744,1026.16 571.769,1106.74 569.18,1167.77C562.589,1323.15 400.984,1298.89 356.462,1300.91C320.057,1302.56 207.819,1323.58 138.383,1240.6C117.46,1215.6 95.262,1141.3 144.208,1051.58C182.152,982.029 188.438,927.393 191.372,898.067C194.521,866.602 138.444,790.621 150.37,741.68C160.284,700.993 160.436,633.964 184.867,650.187C219.681,673.304 181.916,755.295 249.346,771.819C271.593,777.27 291.678,760.45 305.185,744.329L307.985,329.105C308.388,327.416 308.767,325.862 309.123,324.435C302.443,281.153 289.629,198.517 287.45,187.349C284.478,172.119 269.975,166.271 262.136,153.092C254.297,139.914 281.869,100.37 288.892,89.858C290.386,87.622 297.328,95.991 307.155,110.586C308.48,107.851 311.283,105.964 314.523,105.964C319.038,105.964 322.704,109.63 322.704,114.146C322.704,118.558 319.204,122.16 314.83,122.321C318.829,128.589 323.122,135.528 327.588,142.932C328.994,140.45 331.659,138.773 334.713,138.773C339.228,138.773 342.894,142.439 342.894,146.955C342.894,151.421 339.307,155.057 334.859,155.135C338.07,160.588 341.335,166.214 344.611,171.941C345.768,168.826 348.768,166.604 352.283,166.604C356.799,166.604 360.465,170.27 360.465,174.786C360.465,179.301 356.799,182.967 352.283,182.967C351.772,182.967 351.271,182.92 350.785,182.83C354.261,189.014 357.723,195.267 361.125,201.507C362.546,199.088 365.177,197.462 368.184,197.462C372.699,197.462 376.365,201.128 376.365,205.644C376.365,210.159 372.699,213.825 368.184,213.825C368.042,213.825 367.901,213.822 367.761,213.814C371.551,220.922 375.218,227.939 378.684,234.735C380.102,232.303 382.74,230.666 385.757,230.666C390.272,230.666 393.938,234.332 393.938,238.848C393.938,243.363 390.272,247.029 385.757,247.029C385.443,247.029 385.133,247.012 384.828,246.977C388.57,254.567 391.982,261.756 394.945,268.343C396.429,266.265 398.861,264.91 401.606,264.91C406.122,264.91 409.788,268.576 409.788,273.091C409.788,277.607 406.122,281.273 401.606,281.273C401.216,281.273 400.832,281.245 400.455,281.192Z" style="fill:white;fill-opacity:0.47;"/>
            </g>
        </g>
    </g>
</svg>
