<?xml version="1.0" encoding="UTF-8" standalone="no"?>
<!DOCTYPE svg PUBLIC "-//W3C//DTD SVG 1.1//EN" "http://www.w3.org/Graphics/SVG/1.1/DTD/svg11.dtd">
<svg width="100%" height="100%" viewBox="0 0 1200 1200" version="1.1" xmlns="http://www.w3.org/2000/svg" xmlns:xlink="http://www.w3.org/1999/xlink" xml:space="preserve" xmlns:serif="http://www.serif.com/" style="fill-rule:evenodd;clip-rule:evenodd;stroke-linejoin:round;stroke-miterlimit:2;">
    <g transform="matrix(0.682854,-0.639616,1.04401,1.11458,-7776.06,7456.35)">
        <g transform="matrix(1.71196,-5.55112e-16,0,1,4474.82,-6.85002)">
            <path d="M4131.69,421.995L4109.21,347.324L4042.07,242.112L3996.57,216.537L3932.6,260.832L3874.12,372.358L3847.39,465.143L3853.17,506.742L3884.4,536.994L3948.4,544.746L4003.84,527.691L3962.31,558.268L3935.42,609.488L3946.8,645.232L3979.64,629.968L3985.43,653.219L4007.19,665.141L4043.9,594.105L4076.47,545.174L4101.09,525.035L4121.52,536.262L4133.62,547.172L4139.53,588.103L4137.73,614.015L4128.77,655.1L4131.1,699.581L4151.71,701.445L4175.52,680.673L4193.89,726.553L4212.53,684.539L4220.01,662.386L4234.47,691.565L4282.14,715.82L4344.86,683.055L4395.86,605.282L4428.6,492.83L4429.37,413.991L4389.15,385.774L4318.55,385.26L4254.84,407.68L4197.62,424.097L4178.34,435.625L4160.41,420.726L4131.69,421.995Z"/>
        </g>
        <g transform="matrix(2.04088,0.270714,-0.441869,1.25035,3209.29,-1237.27)">
            <path d="M4267.38,559.942C4284.02,587.434 4273.63,619.22 4273.63,619.22L4254.71,591.032L4225.76,625.56C4225.76,625.56 4235.21,575.822 4229.22,550.461C4223.56,526.522 4201.67,488.049 4201.67,488.049C4201.67,488.049 4177.45,478.273 4169.85,483.042C4160.95,488.625 4144.21,515.261 4137.11,528.117C4122.72,554.167 4110.71,615.012 4110.71,615.012C4109.04,606.334 4095.9,598.225 4095.51,575.62L4067.76,602.042C4067.76,602.042 4066.29,562.675 4103.02,523.074C4118.85,505.996 4163.26,473.057 4163.26,473.057L4215.18,483.857C4215.18,483.857 4237.45,510.488 4267.38,559.942Z" style="fill:rgb(78,136,212);"/>
        </g>
        <g transform="matrix(3.26144,-0.402988,0.657773,1.99814,9820.39,-204.856)">
            <path d="M476.262,520.951C442.523,454.401 435.845,270.857 387.739,301.655C339.632,332.454 278.641,424.433 330.203,428.302C394.308,433.113 399.142,436.353 448.355,425.032C487.074,416.124 608.22,386.249 581.482,455.942C554.744,525.635 510.001,587.501 476.262,520.951Z" style="fill:rgb(101,161,240);"/>
        </g>
        <g transform="matrix(2.58774,0.150802,-0.246144,1.58539,896.426,-872.993)">
            <path d="M4167.89,456.906C4189.55,495.708 4211.41,532.8 4232.25,554.597C4251.67,574.896 4268.13,581.235 4281.86,577.647C4269.12,535.551 4205.89,468.043 4167.89,456.906ZM4147.73,455.708C4103.85,448.192 4026.23,456.205 3993.03,486.565C3998.34,493.59 4006.25,498.071 4018.97,495.241C4091.65,479.069 4104.4,479.314 4147.73,455.708Z" style="fill:rgb(79,142,224);"/>
        </g>
        <g transform="matrix(2.58774,0.150802,-0.246144,1.58539,904.281,-872.441)">
            <path d="M4152.43,441.159C4152.43,441.159 4146.95,430.335 4137.86,420.85C4127.22,409.746 4112.52,399.789 4109.34,400.825C4112.4,404.933 4125.77,414.142 4135.28,424.325C4145.48,435.23 4151.69,446.953 4150.02,445.341C4138.87,434.547 4093.11,418.123 4097.53,422.177C4101.74,426.038 4116.76,431.752 4128.34,438.891C4137.93,444.808 4144.75,452.655 4144.75,452.655C4144.75,452.655 4160.62,452.321 4175.59,455.435C4184.86,457.362 4196.39,458.748 4204.6,462.208C4215.49,466.806 4221.88,473.296 4222.74,472.347C4223.87,471.091 4217.05,463.487 4207.48,458.898C4195.56,453.181 4180.18,450.421 4180.18,450.421C4180.18,450.421 4193.2,445.884 4206.06,443.384C4219.02,440.864 4231.81,440.377 4232.39,439.182C4232.98,437.945 4218.55,437.294 4205.12,439.189C4192.71,440.94 4181.24,445.206 4181.24,445.206L4152.43,441.159Z" style="fill:rgb(79,142,224);"/>
        </g>
        <g transform="matrix(4.35092,1.19074,-0.390605,0.535715,7947.97,-808.004)">
            <path d="M884.31,442.749C884.31,415.594 879.879,393.548 874.422,393.548L867.83,393.548C862.373,393.548 857.943,415.594 857.943,442.749L857.943,480.537C857.943,507.691 862.373,529.737 867.83,529.737L874.422,529.737C879.879,529.737 884.31,507.691 884.31,480.537L884.31,442.749Z" style="fill:rgb(101,161,240);"/>
        </g>
    </g>
</svg>
