<?xml version="1.0" encoding="UTF-8" standalone="no"?>
<!DOCTYPE svg PUBLIC "-//W3C//DTD SVG 1.1//EN" "http://www.w3.org/Graphics/SVG/1.1/DTD/svg11.dtd">
<svg width="100%" height="100%" viewBox="0 0 1200 1200" version="1.1" xmlns="http://www.w3.org/2000/svg" xmlns:xlink="http://www.w3.org/1999/xlink" xml:space="preserve" xmlns:serif="http://www.serif.com/" style="fill-rule:evenodd;clip-rule:evenodd;stroke-linejoin:round;stroke-miterlimit:2;">
    <g transform="matrix(1.01076,0.0153452,-0.00878202,0.700289,230.964,489.121)">
        <g transform="matrix(3.33221,-0.0615456,0.037721,2.04229,-3011.6,-955.72)">
            <path d="M1107.82,478.741L1170.21,518.216L1182.19,585.542L1171.62,695.211L1132.02,760.7L1057.89,838.496L991.515,850.743L908.4,867.694L854.635,801.944L831.504,699.586L845.251,615.538L894.76,552.514L899.637,443.915L910.185,384.037L949.988,374.998L993.8,376.533L1030.5,364.548L1070.27,354.483L1098.41,399.449L1107.82,478.741Z"/>
        </g>
        <g transform="matrix(1.02888,-0.203469,0.1653,1.24545,-944.887,-663.538)">
            <path d="M829.842,786.493C841.116,699.028 861.57,573.288 861.57,573.288L1436.61,621.124C1436.61,621.124 1404.8,709.128 1385.22,784.085C1561.32,808.516 1618.76,855.723 1643.48,891.681C1676.03,939.047 1670.72,1081.81 1530.02,1158.64C1367.78,1247.23 1112.4,1260.19 910.085,1239.77C709.781,1219.56 595.599,1120.68 588.976,1007.03C583.668,915.937 644.812,827.398 829.842,786.493Z" style="fill:rgb(88,24,24);"/>
        </g>
        <g transform="matrix(1.02888,-0.203469,0.1653,1.24545,-445.684,-661.283)">
            <path d="M339.5,694.974C357.1,582.837 390.253,491.683 390.253,491.683L965.29,539.519C965.29,539.519 975.651,652.186 976.334,702.836C977.336,777.142 978.018,924.857 628.863,972.241C425.812,999.798 337.932,835.052 337.932,835.052C337.932,835.052 332.259,741.105 339.5,694.974Z" style="fill:rgb(107,40,40);"/>
        </g>
        <g transform="matrix(1.0193,-0.0997981,0.0489261,0.732537,-693.763,-322.442)">
            <path d="M977.57,335.939C1005.32,339.822 1091.25,282.544 1132.87,289.177C1224.78,303.825 1287.26,332.449 1287.26,365.331C1287.26,413.101 1139.58,388.543 977.615,409.625C884.653,421.725 801.472,662.064 791.973,591.459C764.226,385.215 698.714,397.636 698.714,365.331C698.714,334.125 754.981,306.755 839.277,291.525C884.023,283.441 953.898,332.627 977.57,335.939Z" style="fill:rgb(88,24,24);"/>
        </g>
    </g>
</svg>
