<?xml version="1.0" encoding="UTF-8" standalone="no"?>
<!DOCTYPE svg PUBLIC "-//W3C//DTD SVG 1.1//EN" "http://www.w3.org/Graphics/SVG/1.1/DTD/svg11.dtd">
<svg width="100%" height="100%" viewBox="0 0 1200 1200" version="1.1" xmlns="http://www.w3.org/2000/svg" xmlns:xlink="http://www.w3.org/1999/xlink" xml:space="preserve" xmlns:serif="http://www.serif.com/" style="fill-rule:evenodd;clip-rule:evenodd;stroke-linejoin:round;stroke-miterlimit:2;">
    <g transform="matrix(1.42474,-0.291445,0.291445,1.42474,-770.019,91.5473)">
        <g transform="matrix(1.13586,0.396448,-0.425812,1.21999,-21.0206,-596.694)">
            <path d="M1200.66,459.598L1163.68,565.732L1170.29,695.55L1217.3,668.896L1266.12,693.525L1244.85,777.764L1109.2,862.603L893.2,854.919L789.062,799.587L735.796,722.946L777.583,684.573L828.736,681.464L845.94,574.908L803.303,426.438L822.4,388.946L900.879,364.876L1062.16,360.019L1139.46,373.079L1190.83,410.391L1200.66,459.598Z"/>
        </g>
        <g transform="matrix(0.638027,0.236988,-0.252719,0.685921,760.623,19.1959)">
            <path d="M130.522,813.479C141.436,753.198 155.612,664.286 155.612,609.146C155.612,519.503 98.662,296.245 98.662,296.245L699.957,297.517C699.957,297.517 650.81,514.246 650.81,602.477C650.81,658.809 665.192,753.023 675.88,815.257C757.506,788.843 807.328,770.458 824.982,815.927C858.483,902.207 664.569,1037.08 414.796,1037.08C165.023,1037.08 -72.145,891.785 -0.541,800.97C23.796,770.103 63.391,788.52 130.522,813.479Z" style="fill:rgb(50,14,144);"/>
        </g>
        <g transform="matrix(0.638027,0.236988,-0.252719,0.685921,343.578,-474.076)">
            <path d="M1452.64,730.599L1526.59,734.191C1526.59,734.191 1477.16,948.136 1477.16,1036.37C1477.16,1092.7 1491.54,1186.91 1502.23,1249.15C1583.86,1222.73 1633.68,1204.35 1651.33,1249.82C1670.4,1298.94 1615.77,1363.8 1519.09,1410.57L1421.96,1446.75C1403.18,1451.94 1383.59,1456.43 1363.3,1460.09C1383.8,1444.66 1413.77,1419.96 1442.3,1388.56C1492.37,1333.47 1381.1,1373.47 1338.92,1377.91C1219.01,1390.53 1127.87,1387.5 1055.3,1367.03C1023.6,1358.09 967.571,1339.19 944.524,1318.57C933.137,1308.37 936.861,1304.11 941.85,1287.46C947.178,1269.68 945.203,1261.52 943.26,1256.38C940.558,1249.25 929.923,1237.34 929.923,1237.34C929.923,1237.34 947.119,1244.96 958.884,1248.18C1048.28,1272.64 1316.92,1273.2 1310.31,1250.38C1295.66,1199.81 1281.99,1137.95 1281.09,1081.04C1279.45,976.907 1315.95,792.279 1315.95,792.279L1452.64,730.599Z" style="fill:rgb(28,0,102);"/>
        </g>
        <g transform="matrix(0.638027,0.236988,-0.233394,0.63347,359.327,-65.1118)">
            <path d="M1263.26,726.948C1201.8,751.182 1105.41,786.211 1007.46,786.255C892.218,786.308 787.355,755.644 734.167,736.198C729.049,780.85 720.998,824.914 715.015,861.367C764.911,890.468 878.448,921.775 1014.58,921.528C1150.82,921.281 1239.86,894.064 1283.3,860.758C1277.3,821.808 1268.22,773.574 1263.26,726.948Z" style="fill:rgb(172,24,26);"/>
        </g>
        <g transform="matrix(0.638027,0.236988,-0.252719,0.685921,549.463,-204.773)">
            <path d="M887.154,990.752C897.079,1029.11 910.558,1071.03 933.163,1114.47C1009.11,1106.21 1061.84,1086.28 1092.29,1064.71C1086.29,1028.74 1077.21,984.196 1072.25,941.135C1025.73,958.073 959.304,981.375 887.154,990.752Z" style="fill:rgb(134,9,11);"/>
        </g>
        <g transform="matrix(0.652327,0.2423,-0.18577,0.50421,360.689,-107.537)">
            <ellipse cx="992.985" cy="365.331" rx="294.271" ry="86.554" style="fill:rgb(57,19,158);"/>
        </g>
        <g transform="matrix(0.638027,0.236988,-0.219341,0.595328,735.4,4.74069)">
            <path d="M467.494,277.183C622.033,280.244 743.702,311.81 743.702,350.246C743.702,383.03 653.772,409.889 531.852,419.25C539.433,414.22 610.644,379.145 586.168,335.135C567.449,301.476 480.514,286.526 467.494,277.183Z" style="fill:rgb(32,0,117);"/>
        </g>
        <g transform="matrix(0.711055,0.264114,-0.252719,0.685921,736.583,8.9844)">
            <path d="M319.482,425.575C319.482,409.753 306.637,396.908 290.816,396.908L233.483,396.908C217.662,396.908 204.817,409.753 204.817,425.575C204.817,425.575 216.44,515.566 216.44,561.849C216.44,610.815 204.817,719.371 204.817,719.371C204.817,735.193 217.662,748.038 233.483,748.038L290.816,748.038C306.637,748.038 319.482,735.193 319.482,719.371C319.482,719.371 334.819,647.352 338.577,567.028C341.679,500.706 319.482,425.575 319.482,425.575Z" style="fill:rgb(73,37,168);"/>
        </g>
        <g transform="matrix(-0.189569,0.316086,-0.320159,-0.205465,944.299,699.84)">
            <path d="M319.482,425.575C319.482,409.753 306.637,396.908 290.816,396.908L233.483,396.908C217.662,396.908 204.817,409.753 204.817,425.575C204.817,425.575 216.44,515.566 216.44,561.849C216.44,610.815 204.817,719.371 204.817,719.371C204.817,735.193 217.662,748.038 233.483,748.038L290.816,748.038C306.637,748.038 319.482,735.193 319.482,719.371C319.482,719.371 334.819,647.352 338.577,567.028C341.679,500.706 319.482,425.575 319.482,425.575Z" style="fill:rgb(196,34,36);"/>
        </g>
    </g>
</svg>
